%TF.GenerationSoftware,KiCad,Pcbnew,(6.0.11)*%
%TF.CreationDate,2023-08-31T15:14:43+02:00*%
%TF.ProjectId,Origami robot,4f726967-616d-4692-9072-6f626f742e6b,rev?*%
%TF.SameCoordinates,Original*%
%TF.FileFunction,Legend,Bot*%
%TF.FilePolarity,Positive*%
%FSLAX46Y46*%
G04 Gerber Fmt 4.6, Leading zero omitted, Abs format (unit mm)*
G04 Created by KiCad (PCBNEW (6.0.11)) date 2023-08-31 15:14:43*
%MOMM*%
%LPD*%
G01*
G04 APERTURE LIST*
G04 Aperture macros list*
%AMRoundRect*
0 Rectangle with rounded corners*
0 $1 Rounding radius*
0 $2 $3 $4 $5 $6 $7 $8 $9 X,Y pos of 4 corners*
0 Add a 4 corners polygon primitive as box body*
4,1,4,$2,$3,$4,$5,$6,$7,$8,$9,$2,$3,0*
0 Add four circle primitives for the rounded corners*
1,1,$1+$1,$2,$3*
1,1,$1+$1,$4,$5*
1,1,$1+$1,$6,$7*
1,1,$1+$1,$8,$9*
0 Add four rect primitives between the rounded corners*
20,1,$1+$1,$2,$3,$4,$5,0*
20,1,$1+$1,$4,$5,$6,$7,0*
20,1,$1+$1,$6,$7,$8,$9,0*
20,1,$1+$1,$8,$9,$2,$3,0*%
%AMFreePoly0*
4,1,22,0.500000,-0.750000,0.000000,-0.750000,0.000000,-0.745033,-0.079941,-0.743568,-0.215256,-0.701293,-0.333266,-0.622738,-0.424486,-0.514219,-0.481581,-0.384460,-0.499164,-0.250000,-0.500000,-0.250000,-0.500000,0.250000,-0.499164,0.250000,-0.499963,0.256109,-0.478152,0.396186,-0.417904,0.524511,-0.324060,0.630769,-0.204165,0.706417,-0.067858,0.745374,0.000000,0.744959,0.000000,0.750000,
0.500000,0.750000,0.500000,-0.750000,0.500000,-0.750000,$1*%
%AMFreePoly1*
4,1,20,0.000000,0.744959,0.073905,0.744508,0.209726,0.703889,0.328688,0.626782,0.421226,0.519385,0.479903,0.390333,0.500000,0.250000,0.500000,-0.250000,0.499851,-0.262216,0.476331,-0.402017,0.414519,-0.529596,0.319384,-0.634700,0.198574,-0.708877,0.061801,-0.746166,0.000000,-0.745033,0.000000,-0.750000,-0.500000,-0.750000,-0.500000,0.750000,0.000000,0.750000,0.000000,0.744959,
0.000000,0.744959,$1*%
G04 Aperture macros list end*
%ADD10C,0.100000*%
%ADD11C,0.150000*%
%ADD12C,0.120000*%
%ADD13RoundRect,0.500000X-0.500000X-1.000000X0.500000X-1.000000X0.500000X1.000000X-0.500000X1.000000X0*%
%ADD14C,0.900000*%
%ADD15R,1.000000X0.800000*%
%ADD16R,0.700000X1.500000*%
%ADD17RoundRect,0.381000X-0.381000X0.762000X-0.381000X-0.762000X0.381000X-0.762000X0.381000X0.762000X0*%
%ADD18RoundRect,0.381000X0.381000X-0.762000X0.381000X0.762000X-0.381000X0.762000X-0.381000X-0.762000X0*%
%ADD19FreePoly0,180.000000*%
%ADD20FreePoly1,180.000000*%
G04 APERTURE END LIST*
D10*
X-6857142Y-6074142D02*
X-6942857Y-6102714D01*
X-6971428Y-6131285D01*
X-7000000Y-6188428D01*
X-7000000Y-6274142D01*
X-6971428Y-6331285D01*
X-6942857Y-6359857D01*
X-6885714Y-6388428D01*
X-6657142Y-6388428D01*
X-6657142Y-5788428D01*
X-6857142Y-5788428D01*
X-6914285Y-5817000D01*
X-6942857Y-5845571D01*
X-6971428Y-5902714D01*
X-6971428Y-5959857D01*
X-6942857Y-6017000D01*
X-6914285Y-6045571D01*
X-6857142Y-6074142D01*
X-6657142Y-6074142D01*
X-7371428Y-6102714D02*
X-7371428Y-6388428D01*
X-7171428Y-5788428D02*
X-7371428Y-6102714D01*
X-7571428Y-5788428D01*
X-7771428Y-6388428D02*
X-7771428Y-5788428D01*
X-8000000Y-5788428D01*
X-8057142Y-5817000D01*
X-8085714Y-5845571D01*
X-8114285Y-5902714D01*
X-8114285Y-5988428D01*
X-8085714Y-6045571D01*
X-8057142Y-6074142D01*
X-8000000Y-6102714D01*
X-7771428Y-6102714D01*
X-8342857Y-6217000D02*
X-8628571Y-6217000D01*
X-8285714Y-6388428D02*
X-8485714Y-5788428D01*
X-8685714Y-6388428D01*
X-8857142Y-6359857D02*
X-8942857Y-6388428D01*
X-9085714Y-6388428D01*
X-9142857Y-6359857D01*
X-9171428Y-6331285D01*
X-9200000Y-6274142D01*
X-9200000Y-6217000D01*
X-9171428Y-6159857D01*
X-9142857Y-6131285D01*
X-9085714Y-6102714D01*
X-8971428Y-6074142D01*
X-8914285Y-6045571D01*
X-8885714Y-6017000D01*
X-8857142Y-5959857D01*
X-8857142Y-5902714D01*
X-8885714Y-5845571D01*
X-8914285Y-5817000D01*
X-8971428Y-5788428D01*
X-9114285Y-5788428D01*
X-9200000Y-5817000D01*
X-9428571Y-6359857D02*
X-9514285Y-6388428D01*
X-9657142Y-6388428D01*
X-9714285Y-6359857D01*
X-9742857Y-6331285D01*
X-9771428Y-6274142D01*
X-9771428Y-6217000D01*
X-9742857Y-6159857D01*
X-9714285Y-6131285D01*
X-9657142Y-6102714D01*
X-9542857Y-6074142D01*
X-9485714Y-6045571D01*
X-9457142Y-6017000D01*
X-9428571Y-5959857D01*
X-9428571Y-5902714D01*
X-9457142Y-5845571D01*
X-9485714Y-5817000D01*
X-9542857Y-5788428D01*
X-9685714Y-5788428D01*
X-9771428Y-5817000D01*
X-7685714Y-7325857D02*
X-7771428Y-7354428D01*
X-7914285Y-7354428D01*
X-7971428Y-7325857D01*
X-8000000Y-7297285D01*
X-8028571Y-7240142D01*
X-8028571Y-7183000D01*
X-8000000Y-7125857D01*
X-7971428Y-7097285D01*
X-7914285Y-7068714D01*
X-7800000Y-7040142D01*
X-7742857Y-7011571D01*
X-7714285Y-6983000D01*
X-7685714Y-6925857D01*
X-7685714Y-6868714D01*
X-7714285Y-6811571D01*
X-7742857Y-6783000D01*
X-7800000Y-6754428D01*
X-7942857Y-6754428D01*
X-8028571Y-6783000D01*
X-8228571Y-6754428D02*
X-8371428Y-7354428D01*
X-8485714Y-6925857D01*
X-8600000Y-7354428D01*
X-8742857Y-6754428D01*
D11*
X4157142Y-10407142D02*
X4157142Y-11050000D01*
X4199999Y-11178571D01*
X4285714Y-11264285D01*
X4414285Y-11307142D01*
X4499999Y-11307142D01*
X3300000Y-11307142D02*
X3728571Y-11307142D01*
X3728571Y-10407142D01*
X2485714Y-11221428D02*
X2528571Y-11264285D01*
X2657142Y-11307142D01*
X2742857Y-11307142D01*
X2871428Y-11264285D01*
X2957142Y-11178571D01*
X2999999Y-11092857D01*
X3042857Y-10921428D01*
X3042857Y-10792857D01*
X2999999Y-10621428D01*
X2957142Y-10535714D01*
X2871428Y-10450000D01*
X2742857Y-10407142D01*
X2657142Y-10407142D01*
X2528571Y-10450000D01*
X2485714Y-10492857D01*
X1842857Y-10407142D02*
X1842857Y-11050000D01*
X1885714Y-11178571D01*
X1971428Y-11264285D01*
X2099999Y-11307142D01*
X2185714Y-11307142D01*
X985714Y-11307142D02*
X1414285Y-11307142D01*
X1414285Y-10407142D01*
X171428Y-11221428D02*
X214285Y-11264285D01*
X342857Y-11307142D01*
X428571Y-11307142D01*
X557142Y-11264285D01*
X642857Y-11178571D01*
X685714Y-11092857D01*
X728571Y-10921428D01*
X728571Y-10792857D01*
X685714Y-10621428D01*
X642857Y-10535714D01*
X557142Y-10450000D01*
X428571Y-10407142D01*
X342857Y-10407142D01*
X214285Y-10450000D01*
X171428Y-10492857D01*
X-471428Y-10407142D02*
X-471428Y-11050000D01*
X-428571Y-11178571D01*
X-342857Y-11264285D01*
X-214285Y-11307142D01*
X-128571Y-11307142D01*
X-1328571Y-11307142D02*
X-900000Y-11307142D01*
X-900000Y-10407142D01*
X-2142857Y-11221428D02*
X-2100000Y-11264285D01*
X-1971428Y-11307142D01*
X-1885714Y-11307142D01*
X-1757142Y-11264285D01*
X-1671428Y-11178571D01*
X-1628571Y-11092857D01*
X-1585714Y-10921428D01*
X-1585714Y-10792857D01*
X-1628571Y-10621428D01*
X-1671428Y-10535714D01*
X-1757142Y-10450000D01*
X-1885714Y-10407142D01*
X-1971428Y-10407142D01*
X-2100000Y-10450000D01*
X-2142857Y-10492857D01*
X-2785714Y-10407142D02*
X-2785714Y-11050000D01*
X-2742857Y-11178571D01*
X-2657142Y-11264285D01*
X-2528571Y-11307142D01*
X-2442857Y-11307142D01*
X-3642857Y-11307142D02*
X-3214285Y-11307142D01*
X-3214285Y-10407142D01*
X-4457142Y-11221428D02*
X-4414285Y-11264285D01*
X-4285714Y-11307142D01*
X-4200000Y-11307142D01*
X-4071428Y-11264285D01*
X-3985714Y-11178571D01*
X-3942857Y-11092857D01*
X-3900000Y-10921428D01*
X-3900000Y-10792857D01*
X-3942857Y-10621428D01*
X-3985714Y-10535714D01*
X-4071428Y-10450000D01*
X-4200000Y-10407142D01*
X-4285714Y-10407142D01*
X-4414285Y-10450000D01*
X-4457142Y-10492857D01*
%TO.C,SW1*%
X1333333Y6620238D02*
X1190476Y6572619D01*
X952380Y6572619D01*
X857142Y6620238D01*
X809523Y6667857D01*
X761904Y6763095D01*
X761904Y6858333D01*
X809523Y6953571D01*
X857142Y7001190D01*
X952380Y7048809D01*
X1142857Y7096428D01*
X1238095Y7144047D01*
X1285714Y7191666D01*
X1333333Y7286904D01*
X1333333Y7382142D01*
X1285714Y7477380D01*
X1238095Y7525000D01*
X1142857Y7572619D01*
X904761Y7572619D01*
X761904Y7525000D01*
X428571Y7572619D02*
X190476Y6572619D01*
X0Y7286904D01*
X-190476Y6572619D01*
X-428571Y7572619D01*
X-1333333Y6572619D02*
X-761904Y6572619D01*
X-1047619Y6572619D02*
X-1047619Y7572619D01*
X-952380Y7429761D01*
X-857142Y7334523D01*
X-761904Y7286904D01*
%TO.C,M1*%
X809523Y-6852380D02*
X809523Y-5852380D01*
X476190Y-6566666D01*
X142857Y-5852380D01*
X142857Y-6852380D01*
X-857142Y-6852380D02*
X-285714Y-6852380D01*
X-571428Y-6852380D02*
X-571428Y-5852380D01*
X-476190Y-5995238D01*
X-380952Y-6090476D01*
X-285714Y-6138095D01*
X-4319047Y-8071428D02*
X-5080952Y-8071428D01*
X-4700000Y-8452380D02*
X-4700000Y-7690476D01*
X5080952Y-8071428D02*
X4319047Y-8071428D01*
D12*
%TO.C,SW1*%
X-1400000Y11955000D02*
X-1400000Y13245000D01*
X-100000Y13245000D02*
X-300000Y13455000D01*
X-1200000Y13455000D02*
X-300000Y13455000D01*
X3450000Y10945000D02*
X3450000Y10155000D01*
X-1400000Y13245000D02*
X-1200000Y13455000D01*
X1400000Y9105000D02*
X1600000Y9105000D01*
X-3450000Y10155000D02*
X-3450000Y10945000D01*
X-2850000Y11955000D02*
X2850000Y11955000D01*
X-1600000Y9105000D02*
X100000Y9105000D01*
X-100000Y13245000D02*
X-100000Y11955000D01*
%TO.C,M1*%
X2000000Y-4600000D02*
X2000000Y-7600000D01*
X2000000Y-7600000D02*
X-2000000Y-7600000D01*
X-2000000Y-7600000D02*
X-2000000Y-4600000D01*
X5000000Y0D02*
G75*
G03*
X5000000Y0I-5000000J0D01*
G01*
%TO.C,JP1*%
X-9000000Y-5200000D02*
X-7600000Y-5200000D01*
X-7600000Y-3200000D02*
X-9000000Y-3200000D01*
X-9700000Y-3900000D02*
X-9700000Y-4500000D01*
X-6900000Y-4500000D02*
X-6900000Y-3900000D01*
X-9700000Y-4500000D02*
G75*
G03*
X-9000000Y-5200000I700000J0D01*
G01*
X-9000000Y-3200000D02*
G75*
G03*
X-9700000Y-3900000I0J-700000D01*
G01*
X-7600000Y-5200000D02*
G75*
G03*
X-6900000Y-4500000I1J699999D01*
G01*
X-6900000Y-3900000D02*
G75*
G03*
X-7600000Y-3200000I-699999J1D01*
G01*
%TD*%
%LPC*%
D13*
%TO.C,BT1*%
X10550000Y0D03*
X-10550000Y0D03*
%TD*%
D14*
%TO.C,SW1*%
X1500000Y10555000D03*
X-1500000Y10555000D03*
D15*
X-3650000Y9445000D03*
X3650000Y9445000D03*
X3650000Y11655000D03*
X-3650000Y11655000D03*
D16*
X-2250000Y8795000D03*
X750000Y8795000D03*
X2250000Y8795000D03*
%TD*%
D17*
%TO.C,M1*%
X-4700000Y-5900000D03*
D18*
X4700000Y-5900000D03*
%TD*%
D19*
%TO.C,JP1*%
X-7650000Y-4200000D03*
D20*
X-8950000Y-4200000D03*
%TD*%
M02*
