%TF.GenerationSoftware,KiCad,Pcbnew,(6.0.11)*%
%TF.CreationDate,2023-08-31T15:14:43+02:00*%
%TF.ProjectId,Origami robot,4f726967-616d-4692-9072-6f626f742e6b,rev?*%
%TF.SameCoordinates,Original*%
%TF.FileFunction,Copper,L2,Bot*%
%TF.FilePolarity,Positive*%
%FSLAX46Y46*%
G04 Gerber Fmt 4.6, Leading zero omitted, Abs format (unit mm)*
G04 Created by KiCad (PCBNEW (6.0.11)) date 2023-08-31 15:14:43*
%MOMM*%
%LPD*%
G01*
G04 APERTURE LIST*
G04 Aperture macros list*
%AMRoundRect*
0 Rectangle with rounded corners*
0 $1 Rounding radius*
0 $2 $3 $4 $5 $6 $7 $8 $9 X,Y pos of 4 corners*
0 Add a 4 corners polygon primitive as box body*
4,1,4,$2,$3,$4,$5,$6,$7,$8,$9,$2,$3,0*
0 Add four circle primitives for the rounded corners*
1,1,$1+$1,$2,$3*
1,1,$1+$1,$4,$5*
1,1,$1+$1,$6,$7*
1,1,$1+$1,$8,$9*
0 Add four rect primitives between the rounded corners*
20,1,$1+$1,$2,$3,$4,$5,0*
20,1,$1+$1,$4,$5,$6,$7,0*
20,1,$1+$1,$6,$7,$8,$9,0*
20,1,$1+$1,$8,$9,$2,$3,0*%
%AMFreePoly0*
4,1,22,0.500000,-0.750000,0.000000,-0.750000,0.000000,-0.745033,-0.079941,-0.743568,-0.215256,-0.701293,-0.333266,-0.622738,-0.424486,-0.514219,-0.481581,-0.384460,-0.499164,-0.250000,-0.500000,-0.250000,-0.500000,0.250000,-0.499164,0.250000,-0.499963,0.256109,-0.478152,0.396186,-0.417904,0.524511,-0.324060,0.630769,-0.204165,0.706417,-0.067858,0.745374,0.000000,0.744959,0.000000,0.750000,
0.500000,0.750000,0.500000,-0.750000,0.500000,-0.750000,$1*%
%AMFreePoly1*
4,1,20,0.000000,0.744959,0.073905,0.744508,0.209726,0.703889,0.328688,0.626782,0.421226,0.519385,0.479903,0.390333,0.500000,0.250000,0.500000,-0.250000,0.499851,-0.262216,0.476331,-0.402017,0.414519,-0.529596,0.319384,-0.634700,0.198574,-0.708877,0.061801,-0.746166,0.000000,-0.745033,0.000000,-0.750000,-0.500000,-0.750000,-0.500000,0.750000,0.000000,0.750000,0.000000,0.744959,
0.000000,0.744959,$1*%
G04 Aperture macros list end*
%TA.AperFunction,ComponentPad*%
%ADD10RoundRect,0.500000X-0.500000X-1.000000X0.500000X-1.000000X0.500000X1.000000X-0.500000X1.000000X0*%
%TD*%
%TA.AperFunction,SMDPad,CuDef*%
%ADD11R,1.000000X0.800000*%
%TD*%
%TA.AperFunction,SMDPad,CuDef*%
%ADD12R,0.700000X1.500000*%
%TD*%
%TA.AperFunction,SMDPad,CuDef*%
%ADD13RoundRect,0.381000X-0.381000X0.762000X-0.381000X-0.762000X0.381000X-0.762000X0.381000X0.762000X0*%
%TD*%
%TA.AperFunction,SMDPad,CuDef*%
%ADD14RoundRect,0.381000X0.381000X-0.762000X0.381000X0.762000X-0.381000X0.762000X-0.381000X-0.762000X0*%
%TD*%
%TA.AperFunction,SMDPad,CuDef*%
%ADD15FreePoly0,180.000000*%
%TD*%
%TA.AperFunction,SMDPad,CuDef*%
%ADD16FreePoly1,180.000000*%
%TD*%
%TA.AperFunction,ViaPad*%
%ADD17C,0.800000*%
%TD*%
%TA.AperFunction,Conductor*%
%ADD18C,0.750000*%
%TD*%
G04 APERTURE END LIST*
D10*
%TO.P,BT1,1,+*%
%TO.N,+3.3V*%
X10550000Y0D03*
X-10550000Y0D03*
%TD*%
D11*
%TO.P,SW1,*%
%TO.N,*%
X-3650000Y9445000D03*
X3650000Y9445000D03*
X3650000Y11655000D03*
X-3650000Y11655000D03*
D12*
%TO.P,SW1,1,A*%
%TO.N,Net-(JP1-Pad1)*%
X-2250000Y8795000D03*
%TO.P,SW1,2,B*%
%TO.N,+3.3V*%
X750000Y8795000D03*
%TO.P,SW1,3*%
%TO.N,N/C*%
X2250000Y8795000D03*
%TD*%
D13*
%TO.P,M1,1,+*%
%TO.N,Net-(JP1-Pad1)*%
X-4700000Y-5900000D03*
D14*
%TO.P,M1,2,-*%
%TO.N,GND*%
X4700000Y-5900000D03*
%TD*%
D15*
%TO.P,JP1,1,A*%
%TO.N,Net-(JP1-Pad1)*%
X-7650000Y-4200000D03*
D16*
%TO.P,JP1,2,B*%
%TO.N,+3.3V*%
X-8950000Y-4200000D03*
%TD*%
D17*
%TO.N,GND*%
X0Y-8800000D03*
X-2000000Y-8600000D03*
X2000000Y-8600000D03*
%TD*%
D18*
%TO.N,Net-(JP1-Pad1)*%
X-2250000Y7910000D02*
X-2250000Y8795000D01*
X-4700000Y5460000D02*
X-2250000Y7910000D01*
X-4700000Y-5900000D02*
X-4700000Y5460000D01*
%TO.N,+3.3V*%
X-8950000Y-1600000D02*
X-10550000Y0D01*
X-8950000Y-4200000D02*
X-8950000Y-1600000D01*
X6500000Y0D02*
X10550000Y0D01*
X750000Y5750000D02*
X6500000Y0D01*
X750000Y8795000D02*
X750000Y5750000D01*
%TO.N,Net-(JP1-Pad1)*%
X-7650000Y-4200000D02*
X-6400000Y-4200000D01*
X-6400000Y-4200000D02*
X-4700000Y-5900000D01*
%TD*%
%TA.AperFunction,Conductor*%
%TO.N,GND*%
G36*
X90721Y12491073D02*
G01*
X435777Y12479024D01*
X780842Y12466973D01*
X787847Y12466533D01*
X1131695Y12435240D01*
X1475535Y12403948D01*
X1482522Y12403115D01*
X2165631Y12302242D01*
X2172560Y12301020D01*
X2540836Y12225424D01*
X2603543Y12192133D01*
X2638298Y12130225D01*
X2641500Y12101998D01*
X2641500Y11206866D01*
X2648255Y11144684D01*
X2699385Y11008295D01*
X2786739Y10891739D01*
X2903295Y10804385D01*
X3039684Y10753255D01*
X3101866Y10746500D01*
X4198134Y10746500D01*
X4260316Y10753255D01*
X4396705Y10804385D01*
X4513261Y10891739D01*
X4600615Y11008295D01*
X4651745Y11144684D01*
X4658500Y11206866D01*
X4658500Y11402087D01*
X4678502Y11470208D01*
X4732158Y11516701D01*
X4802432Y11526805D01*
X4830058Y11519563D01*
X4837382Y11516722D01*
X4843849Y11514003D01*
X5472714Y11228737D01*
X5479014Y11225665D01*
X5930350Y10989712D01*
X6090985Y10905734D01*
X6097111Y10902311D01*
X6590180Y10608382D01*
X6690254Y10548726D01*
X6696194Y10544956D01*
X7268673Y10158815D01*
X7274391Y10154721D01*
X7743181Y9798891D01*
X7824416Y9737230D01*
X7829897Y9732824D01*
X8355772Y9285269D01*
X8360983Y9280577D01*
X8861057Y8804363D01*
X8866006Y8799379D01*
X9338718Y8295992D01*
X9343373Y8290750D01*
X9618378Y7963011D01*
X9787248Y7761759D01*
X9791618Y7756245D01*
X10205258Y7203320D01*
X10209314Y7197570D01*
X10591442Y6622423D01*
X10595171Y6616456D01*
X10944610Y6020851D01*
X10947999Y6014685D01*
X11263625Y5400543D01*
X11266666Y5394198D01*
X11547539Y4763348D01*
X11550220Y4756842D01*
X11795425Y4111333D01*
X11797739Y4104689D01*
X12006539Y3446470D01*
X12008474Y3439720D01*
X12146585Y2901816D01*
X12180203Y2770882D01*
X12181762Y2764020D01*
X12315883Y2086656D01*
X12317057Y2079719D01*
X12413163Y1395893D01*
X12413947Y1388900D01*
X12471728Y700805D01*
X12472121Y693780D01*
X12491426Y2642D01*
X12491463Y-2635D01*
X12486667Y-346140D01*
X12486483Y-351415D01*
X12447887Y-1041752D01*
X12447298Y-1048763D01*
X12370325Y-1734996D01*
X12369346Y-1741960D01*
X12324264Y-2008500D01*
X12254190Y-2422797D01*
X12252826Y-2429691D01*
X12107602Y-3068901D01*
X12099836Y-3103082D01*
X12098090Y-3109881D01*
X11966613Y-3568394D01*
X11907749Y-3773677D01*
X11905621Y-3780383D01*
X11848743Y-3943715D01*
X11678924Y-4431373D01*
X11678537Y-4432483D01*
X11676042Y-4439053D01*
X11414630Y-5073286D01*
X11412894Y-5077498D01*
X11410035Y-5083920D01*
X11140732Y-5646000D01*
X11111667Y-5706663D01*
X11108456Y-5712911D01*
X11025172Y-5864404D01*
X10775782Y-6318041D01*
X10772221Y-6324110D01*
X10406301Y-6909706D01*
X10402407Y-6915567D01*
X10355174Y-6982524D01*
X10055067Y-7407953D01*
X10004363Y-7479830D01*
X10000154Y-7485456D01*
X9947961Y-7551307D01*
X9571236Y-8026615D01*
X9566714Y-8032005D01*
X9108234Y-8548404D01*
X9103437Y-8553512D01*
X8983079Y-8674714D01*
X8616855Y-9043503D01*
X8611765Y-9048351D01*
X8098589Y-9510415D01*
X8093267Y-9514945D01*
X7959431Y-9622552D01*
X7555096Y-9947645D01*
X7549492Y-9951899D01*
X6987991Y-10353895D01*
X6982190Y-10357807D01*
X6409976Y-10720945D01*
X6399155Y-10727812D01*
X6393114Y-10731413D01*
X6258757Y-10806503D01*
X5790340Y-11068292D01*
X5784105Y-11071552D01*
X5163460Y-11374261D01*
X5157058Y-11377165D01*
X4988397Y-11448064D01*
X4520470Y-11644762D01*
X4513910Y-11647306D01*
X4225836Y-11749885D01*
X3863401Y-11878941D01*
X3856731Y-11881109D01*
X3680898Y-11932860D01*
X3194270Y-12076082D01*
X3187467Y-12077879D01*
X2515196Y-12235559D01*
X2508304Y-12236974D01*
X2316440Y-12270805D01*
X1828247Y-12356887D01*
X1821320Y-12357909D01*
X1135612Y-12439676D01*
X1128620Y-12440311D01*
X439450Y-12483671D01*
X432451Y-12483915D01*
X54078Y-12486557D01*
X-258077Y-12488735D01*
X-265111Y-12488588D01*
X-660732Y-12469239D01*
X-954835Y-12454855D01*
X-961827Y-12454317D01*
X-1391811Y-12409124D01*
X-1648587Y-12382136D01*
X-1655561Y-12381205D01*
X-2337190Y-12270805D01*
X-2344102Y-12269487D01*
X-3018527Y-12121205D01*
X-3025354Y-12119503D01*
X-3540498Y-11975673D01*
X-3690461Y-11933803D01*
X-3697161Y-11931728D01*
X-4087419Y-11798874D01*
X-4350868Y-11709188D01*
X-4357462Y-11706735D01*
X-4753583Y-11546692D01*
X-4997704Y-11448061D01*
X-5004136Y-11445251D01*
X-5628943Y-11151239D01*
X-5635222Y-11148068D01*
X-6242657Y-10819628D01*
X-6248750Y-10816110D01*
X-6836888Y-10454285D01*
X-6842776Y-10450432D01*
X-7409812Y-10056332D01*
X-7415475Y-10052156D01*
X-7959603Y-9627037D01*
X-7965025Y-9622552D01*
X-8484583Y-9167714D01*
X-8489746Y-9162934D01*
X-8611705Y-9043503D01*
X-8983146Y-8679760D01*
X-8988003Y-8674730D01*
X-9453624Y-8164809D01*
X-9458222Y-8159483D01*
X-9894664Y-7624352D01*
X-9898957Y-7618777D01*
X-10304840Y-7060127D01*
X-10308815Y-7054321D01*
X-10471480Y-6801915D01*
X-10682882Y-6473883D01*
X-10686511Y-6467893D01*
X-11027602Y-5867463D01*
X-11030902Y-5861258D01*
X-11107643Y-5706663D01*
X-11337941Y-5242730D01*
X-11340890Y-5236348D01*
X-11367289Y-5174754D01*
X-11612921Y-4601653D01*
X-11615508Y-4595118D01*
X-11649484Y-4501768D01*
X-11797194Y-4095939D01*
X-11851682Y-3946235D01*
X-11853903Y-3939558D01*
X-11968828Y-3558908D01*
X-12053489Y-3278497D01*
X-12055331Y-3271719D01*
X-12055365Y-3271576D01*
X-12155969Y-2855728D01*
X-12217703Y-2600550D01*
X-12219166Y-2593667D01*
X-12333796Y-1969100D01*
X-12343822Y-1914474D01*
X-12344897Y-1907525D01*
X-12373708Y-1679457D01*
X-12402107Y-1454656D01*
X-12431441Y-1222455D01*
X-12432128Y-1215452D01*
X-12440458Y-1096328D01*
X-12058500Y-1096328D01*
X-12058192Y-1102408D01*
X-12057267Y-1106995D01*
X-12057267Y-1106996D01*
X-12020767Y-1288015D01*
X-12019100Y-1296284D01*
X-11943095Y-1478873D01*
X-11939668Y-1483992D01*
X-11939666Y-1483996D01*
X-11836504Y-1638099D01*
X-11836500Y-1638104D01*
X-11833073Y-1643223D01*
X-11693223Y-1783073D01*
X-11688104Y-1786500D01*
X-11688099Y-1786504D01*
X-11533996Y-1889666D01*
X-11533992Y-1889668D01*
X-11528873Y-1893095D01*
X-11346284Y-1969100D01*
X-11340248Y-1970317D01*
X-11340245Y-1970318D01*
X-11156996Y-2007267D01*
X-11152408Y-2008192D01*
X-11146328Y-2008500D01*
X-9959500Y-2008500D01*
X-9891379Y-2028502D01*
X-9844886Y-2082158D01*
X-9833500Y-2134500D01*
X-9833500Y-3419558D01*
X-9846107Y-3474495D01*
X-9886601Y-3558076D01*
X-9893554Y-3572428D01*
X-9894916Y-3576695D01*
X-9894917Y-3576698D01*
X-9904130Y-3605566D01*
X-9937838Y-3711188D01*
X-9961600Y-3852426D01*
X-9968682Y-3931373D01*
X-9968833Y-3943715D01*
X-9968675Y-3946137D01*
X-9963995Y-4018036D01*
X-9963729Y-4026221D01*
X-9963729Y-4370519D01*
X-9964233Y-4381777D01*
X-9968682Y-4431373D01*
X-9968712Y-4433795D01*
X-9968712Y-4433802D01*
X-9968752Y-4437116D01*
X-9968833Y-4443715D01*
X-9968675Y-4446137D01*
X-9964473Y-4510690D01*
X-9963683Y-4522829D01*
X-9963338Y-4525238D01*
X-9944503Y-4656756D01*
X-9943379Y-4664606D01*
X-9902497Y-4804410D01*
X-9843217Y-4934789D01*
X-9840805Y-4938560D01*
X-9840801Y-4938568D01*
X-9799007Y-5003919D01*
X-9764742Y-5057497D01*
X-9671252Y-5165998D01*
X-9561489Y-5261750D01*
X-9557728Y-5264188D01*
X-9557725Y-5264190D01*
X-9550057Y-5269160D01*
X-9441304Y-5339650D01*
X-9437243Y-5341526D01*
X-9437242Y-5341527D01*
X-9428457Y-5345586D01*
X-9309076Y-5400748D01*
X-9240467Y-5421266D01*
X-9176156Y-5440499D01*
X-9176151Y-5440500D01*
X-9171858Y-5441784D01*
X-9167426Y-5442446D01*
X-9167423Y-5442447D01*
X-9032235Y-5462650D01*
X-9032232Y-5462650D01*
X-9027804Y-5463312D01*
X-8953145Y-5463768D01*
X-8889055Y-5464160D01*
X-8889050Y-5464160D01*
X-8884583Y-5464187D01*
X-8882139Y-5463852D01*
X-8878344Y-5463729D01*
X-8450000Y-5463729D01*
X-8418014Y-5461441D01*
X-8383627Y-5458982D01*
X-8383626Y-5458982D01*
X-8376889Y-5458500D01*
X-8340560Y-5447833D01*
X-8287132Y-5444012D01*
X-8150000Y-5463729D01*
X-7659992Y-5463729D01*
X-7659222Y-5463731D01*
X-7589069Y-5464160D01*
X-7589063Y-5464160D01*
X-7584583Y-5464187D01*
X-7500493Y-5452669D01*
X-7444724Y-5445030D01*
X-7444720Y-5445029D01*
X-7440273Y-5444420D01*
X-7302564Y-5405063D01*
X-7169602Y-5345586D01*
X-7165820Y-5343200D01*
X-7165813Y-5343196D01*
X-7052264Y-5271551D01*
X-7048474Y-5269160D01*
X-6937548Y-5174754D01*
X-6929815Y-5165998D01*
X-6903021Y-5135660D01*
X-6842935Y-5097842D01*
X-6771942Y-5098513D01*
X-6719485Y-5129973D01*
X-6007405Y-5842053D01*
X-5973379Y-5904365D01*
X-5970500Y-5931148D01*
X-5970500Y-6724258D01*
X-5964388Y-6801915D01*
X-5915994Y-6982524D01*
X-5831107Y-7149125D01*
X-5713436Y-7294436D01*
X-5568125Y-7412107D01*
X-5401524Y-7496994D01*
X-5395151Y-7498702D01*
X-5395150Y-7498702D01*
X-5226492Y-7543894D01*
X-5226488Y-7543895D01*
X-5220915Y-7545388D01*
X-5215159Y-7545841D01*
X-5145714Y-7551307D01*
X-5145706Y-7551307D01*
X-5143258Y-7551500D01*
X-4256742Y-7551500D01*
X-4254294Y-7551307D01*
X-4254286Y-7551307D01*
X-4184841Y-7545841D01*
X-4179085Y-7545388D01*
X-4173512Y-7543895D01*
X-4173508Y-7543894D01*
X-4004850Y-7498702D01*
X-4004849Y-7498702D01*
X-3998476Y-7496994D01*
X-3831875Y-7412107D01*
X-3686564Y-7294436D01*
X-3568893Y-7149125D01*
X-3484006Y-6982524D01*
X-3435612Y-6801915D01*
X-3429500Y-6724258D01*
X-3429500Y-6721755D01*
X3430000Y-6721755D01*
X3430193Y-6726681D01*
X3435655Y-6796081D01*
X3437602Y-6807413D01*
X3482767Y-6975970D01*
X3487471Y-6988223D01*
X3566318Y-7142968D01*
X3573470Y-7153982D01*
X3682768Y-7288955D01*
X3692045Y-7298232D01*
X3827018Y-7407530D01*
X3838032Y-7414682D01*
X3992777Y-7493529D01*
X4005030Y-7498233D01*
X4173587Y-7543398D01*
X4184919Y-7545345D01*
X4254319Y-7550807D01*
X4259245Y-7551000D01*
X4427885Y-7551000D01*
X4443124Y-7546525D01*
X4444329Y-7545135D01*
X4446000Y-7537452D01*
X4446000Y-7532885D01*
X4954000Y-7532885D01*
X4958475Y-7548124D01*
X4959865Y-7549329D01*
X4967548Y-7551000D01*
X5140755Y-7551000D01*
X5145681Y-7550807D01*
X5215081Y-7545345D01*
X5226413Y-7543398D01*
X5394970Y-7498233D01*
X5407223Y-7493529D01*
X5561968Y-7414682D01*
X5572982Y-7407530D01*
X5707955Y-7298232D01*
X5717232Y-7288955D01*
X5826530Y-7153982D01*
X5833682Y-7142968D01*
X5912529Y-6988223D01*
X5917233Y-6975970D01*
X5962398Y-6807413D01*
X5964345Y-6796081D01*
X5969807Y-6726681D01*
X5970000Y-6721755D01*
X5970000Y-6172115D01*
X5965525Y-6156876D01*
X5964135Y-6155671D01*
X5956452Y-6154000D01*
X4972115Y-6154000D01*
X4956876Y-6158475D01*
X4955671Y-6159865D01*
X4954000Y-6167548D01*
X4954000Y-7532885D01*
X4446000Y-7532885D01*
X4446000Y-6172115D01*
X4441525Y-6156876D01*
X4440135Y-6155671D01*
X4432452Y-6154000D01*
X3448115Y-6154000D01*
X3432876Y-6158475D01*
X3431671Y-6159865D01*
X3430000Y-6167548D01*
X3430000Y-6721755D01*
X-3429500Y-6721755D01*
X-3429500Y-5627885D01*
X3430000Y-5627885D01*
X3434475Y-5643124D01*
X3435865Y-5644329D01*
X3443548Y-5646000D01*
X4427885Y-5646000D01*
X4443124Y-5641525D01*
X4444329Y-5640135D01*
X4446000Y-5632452D01*
X4446000Y-5627885D01*
X4954000Y-5627885D01*
X4958475Y-5643124D01*
X4959865Y-5644329D01*
X4967548Y-5646000D01*
X5951885Y-5646000D01*
X5967124Y-5641525D01*
X5968329Y-5640135D01*
X5970000Y-5632452D01*
X5970000Y-5078246D01*
X5969807Y-5073319D01*
X5964345Y-5003919D01*
X5962398Y-4992587D01*
X5917233Y-4824030D01*
X5912529Y-4811777D01*
X5833682Y-4657032D01*
X5826530Y-4646018D01*
X5717232Y-4511045D01*
X5707955Y-4501768D01*
X5572982Y-4392470D01*
X5561968Y-4385318D01*
X5407223Y-4306471D01*
X5394970Y-4301767D01*
X5226413Y-4256602D01*
X5215081Y-4254655D01*
X5145681Y-4249193D01*
X5140754Y-4249000D01*
X4972115Y-4249000D01*
X4956876Y-4253475D01*
X4955671Y-4254865D01*
X4954000Y-4262548D01*
X4954000Y-5627885D01*
X4446000Y-5627885D01*
X4446000Y-4267115D01*
X4441525Y-4251876D01*
X4440135Y-4250671D01*
X4432452Y-4249000D01*
X4259246Y-4249000D01*
X4254319Y-4249193D01*
X4184919Y-4254655D01*
X4173587Y-4256602D01*
X4005030Y-4301767D01*
X3992777Y-4306471D01*
X3838032Y-4385318D01*
X3827018Y-4392470D01*
X3692045Y-4501768D01*
X3682768Y-4511045D01*
X3573470Y-4646018D01*
X3566318Y-4657032D01*
X3487471Y-4811777D01*
X3482767Y-4824030D01*
X3437602Y-4992587D01*
X3435655Y-5003919D01*
X3430193Y-5073319D01*
X3430000Y-5078246D01*
X3430000Y-5627885D01*
X-3429500Y-5627885D01*
X-3429500Y-5075742D01*
X-3435612Y-4998085D01*
X-3451559Y-4938568D01*
X-3482298Y-4823850D01*
X-3482298Y-4823849D01*
X-3484006Y-4817476D01*
X-3568893Y-4650875D01*
X-3674543Y-4520408D01*
X-3682413Y-4510690D01*
X-3686564Y-4505564D01*
X-3691690Y-4501413D01*
X-3769795Y-4438164D01*
X-3810147Y-4379749D01*
X-3816500Y-4340244D01*
X-3816500Y5041852D01*
X-3796498Y5109973D01*
X-3779595Y5130947D01*
X-3114049Y5796493D01*
X-137150Y5796493D01*
X-136805Y5789906D01*
X-136805Y5789902D01*
X-133673Y5730150D01*
X-133500Y5723555D01*
X-133500Y5703694D01*
X-133156Y5700423D01*
X-131424Y5683941D01*
X-130907Y5677367D01*
X-128496Y5631372D01*
X-127430Y5611029D01*
X-123958Y5598071D01*
X-120355Y5578628D01*
X-118954Y5565298D01*
X-98422Y5502106D01*
X-96556Y5495804D01*
X-92281Y5479850D01*
X-79362Y5431637D01*
X-76366Y5425758D01*
X-76363Y5425749D01*
X-73272Y5419683D01*
X-65708Y5401421D01*
X-63608Y5394957D01*
X-63605Y5394949D01*
X-61564Y5388669D01*
X-58262Y5382950D01*
X-58260Y5382945D01*
X-28346Y5331133D01*
X-25213Y5325363D01*
X4953Y5266161D01*
X9109Y5261029D01*
X13391Y5255741D01*
X24589Y5239448D01*
X31296Y5227831D01*
X35713Y5222925D01*
X35717Y5222920D01*
X75747Y5178462D01*
X80031Y5173446D01*
X90441Y5160591D01*
X92528Y5158014D01*
X106573Y5143969D01*
X111114Y5139184D01*
X155566Y5089815D01*
X166426Y5081925D01*
X181454Y5069088D01*
X5819088Y-568546D01*
X5831925Y-583574D01*
X5839815Y-594434D01*
X5844725Y-598855D01*
X5844726Y-598856D01*
X5889184Y-638886D01*
X5893969Y-643427D01*
X5908014Y-657472D01*
X5910588Y-659556D01*
X5910591Y-659559D01*
X5923446Y-669969D01*
X5928462Y-674253D01*
X5972920Y-714283D01*
X5972925Y-714287D01*
X5977831Y-718704D01*
X5989097Y-725209D01*
X5989448Y-725411D01*
X6005741Y-736609D01*
X6016161Y-745047D01*
X6075363Y-775213D01*
X6081133Y-778346D01*
X6132945Y-808260D01*
X6132950Y-808262D01*
X6138669Y-811564D01*
X6144949Y-813605D01*
X6144957Y-813608D01*
X6151421Y-815708D01*
X6169683Y-823272D01*
X6175749Y-826363D01*
X6175758Y-826366D01*
X6181637Y-829362D01*
X6188015Y-831071D01*
X6245804Y-846556D01*
X6252106Y-848422D01*
X6315298Y-868954D01*
X6328205Y-870311D01*
X6328628Y-870355D01*
X6348071Y-873958D01*
X6361029Y-877430D01*
X6367619Y-877775D01*
X6367623Y-877776D01*
X6411573Y-880079D01*
X6427372Y-880907D01*
X6433931Y-881423D01*
X6453694Y-883500D01*
X6473555Y-883500D01*
X6480150Y-883673D01*
X6539902Y-886805D01*
X6539906Y-886805D01*
X6546493Y-887150D01*
X6559747Y-885051D01*
X6579456Y-883500D01*
X8915500Y-883500D01*
X8983621Y-903502D01*
X9030114Y-957158D01*
X9041500Y-1009500D01*
X9041500Y-1096328D01*
X9041808Y-1102408D01*
X9042733Y-1106995D01*
X9042733Y-1106996D01*
X9079233Y-1288015D01*
X9080900Y-1296284D01*
X9156905Y-1478873D01*
X9160332Y-1483992D01*
X9160334Y-1483996D01*
X9263496Y-1638099D01*
X9263500Y-1638104D01*
X9266927Y-1643223D01*
X9406777Y-1783073D01*
X9411896Y-1786500D01*
X9411901Y-1786504D01*
X9566004Y-1889666D01*
X9566008Y-1889668D01*
X9571127Y-1893095D01*
X9753716Y-1969100D01*
X9759752Y-1970317D01*
X9759755Y-1970318D01*
X9943004Y-2007267D01*
X9947592Y-2008192D01*
X9953672Y-2008500D01*
X11146328Y-2008500D01*
X11152408Y-2008192D01*
X11156996Y-2007267D01*
X11340245Y-1970318D01*
X11340248Y-1970317D01*
X11346284Y-1969100D01*
X11528873Y-1893095D01*
X11533992Y-1889668D01*
X11533996Y-1889666D01*
X11688099Y-1786504D01*
X11688104Y-1786500D01*
X11693223Y-1783073D01*
X11833073Y-1643223D01*
X11836500Y-1638104D01*
X11836504Y-1638099D01*
X11939666Y-1483996D01*
X11939668Y-1483992D01*
X11943095Y-1478873D01*
X12019100Y-1296284D01*
X12020768Y-1288015D01*
X12057267Y-1106996D01*
X12057267Y-1106995D01*
X12058192Y-1102408D01*
X12058500Y-1096328D01*
X12058500Y1096328D01*
X12058192Y1102408D01*
X12019100Y1296284D01*
X11943095Y1478873D01*
X11939668Y1483992D01*
X11939666Y1483996D01*
X11836504Y1638099D01*
X11836500Y1638104D01*
X11833073Y1643223D01*
X11693223Y1783073D01*
X11688104Y1786500D01*
X11688099Y1786504D01*
X11533996Y1889666D01*
X11533992Y1889668D01*
X11528873Y1893095D01*
X11346284Y1969100D01*
X11340248Y1970317D01*
X11340245Y1970318D01*
X11156996Y2007267D01*
X11156995Y2007267D01*
X11152408Y2008192D01*
X11146328Y2008500D01*
X9953672Y2008500D01*
X9947592Y2008192D01*
X9943005Y2007267D01*
X9943004Y2007267D01*
X9759755Y1970318D01*
X9759752Y1970317D01*
X9753716Y1969100D01*
X9571127Y1893095D01*
X9566008Y1889668D01*
X9566004Y1889666D01*
X9411901Y1786504D01*
X9411896Y1786500D01*
X9406777Y1783073D01*
X9266927Y1643223D01*
X9263500Y1638104D01*
X9263496Y1638099D01*
X9160334Y1483996D01*
X9160332Y1483992D01*
X9156905Y1478873D01*
X9080900Y1296284D01*
X9041808Y1102408D01*
X9041500Y1096328D01*
X9041500Y1009500D01*
X9021498Y941379D01*
X8967842Y894886D01*
X8915500Y883500D01*
X6918148Y883500D01*
X6850027Y903502D01*
X6829053Y920405D01*
X1670405Y6079053D01*
X1636379Y6141365D01*
X1633500Y6168148D01*
X1633500Y7421933D01*
X1653502Y7490054D01*
X1707158Y7536547D01*
X1777432Y7546651D01*
X1783921Y7545415D01*
X1789684Y7543255D01*
X1851866Y7536500D01*
X2648134Y7536500D01*
X2710316Y7543255D01*
X2846705Y7594385D01*
X2963261Y7681739D01*
X3050615Y7798295D01*
X3101745Y7934684D01*
X3108500Y7996866D01*
X3108500Y8410500D01*
X3128502Y8478621D01*
X3182158Y8525114D01*
X3234500Y8536500D01*
X4198134Y8536500D01*
X4260316Y8543255D01*
X4396705Y8594385D01*
X4513261Y8681739D01*
X4600615Y8798295D01*
X4651745Y8934684D01*
X4658500Y8996866D01*
X4658500Y9893134D01*
X4651745Y9955316D01*
X4600615Y10091705D01*
X4513261Y10208261D01*
X4396705Y10295615D01*
X4260316Y10346745D01*
X4198134Y10353500D01*
X3101866Y10353500D01*
X3039684Y10346745D01*
X2903295Y10295615D01*
X2786739Y10208261D01*
X2744701Y10152170D01*
X2708551Y10103935D01*
X2651692Y10061420D01*
X2607725Y10053500D01*
X2522008Y10053500D01*
X2453887Y10073502D01*
X2407394Y10127158D01*
X2397290Y10197432D01*
X2402622Y10218366D01*
X2403018Y10219171D01*
X2404625Y10225341D01*
X2404627Y10225346D01*
X2450492Y10401425D01*
X2450492Y10401428D01*
X2452102Y10407607D01*
X2462293Y10602064D01*
X2433175Y10794599D01*
X2430972Y10800585D01*
X2430971Y10800591D01*
X2368140Y10971360D01*
X2368138Y10971365D01*
X2365937Y10977346D01*
X2263326Y11142840D01*
X2185009Y11225659D01*
X2133919Y11279685D01*
X2129534Y11284322D01*
X2101350Y11304057D01*
X1975259Y11392346D01*
X1970025Y11396011D01*
X1886864Y11431998D01*
X1797175Y11470810D01*
X1797171Y11470811D01*
X1791316Y11473345D01*
X1785069Y11474650D01*
X1785066Y11474651D01*
X1605443Y11512176D01*
X1605438Y11512177D01*
X1600707Y11513165D01*
X1594315Y11513500D01*
X1451337Y11513500D01*
X1382049Y11506462D01*
X1312622Y11499410D01*
X1312621Y11499410D01*
X1306273Y11498765D01*
X1249939Y11481111D01*
X1126549Y11442444D01*
X1126544Y11442442D01*
X1120459Y11440535D01*
X1051098Y11402087D01*
X955729Y11349223D01*
X955726Y11349221D01*
X950150Y11346130D01*
X945309Y11341981D01*
X945305Y11341978D01*
X899417Y11302647D01*
X802302Y11219409D01*
X798391Y11214367D01*
X798390Y11214366D01*
X750433Y11152540D01*
X682954Y11065547D01*
X680138Y11059824D01*
X680136Y11059821D01*
X636608Y10971360D01*
X596982Y10890829D01*
X595373Y10884651D01*
X595372Y10884649D01*
X561147Y10753255D01*
X547898Y10702393D01*
X547564Y10696014D01*
X539845Y10548726D01*
X537707Y10507936D01*
X566825Y10315401D01*
X569028Y10309415D01*
X569029Y10309409D01*
X600819Y10223008D01*
X605569Y10152170D01*
X571268Y10090010D01*
X508805Y10056262D01*
X482569Y10053500D01*
X351866Y10053500D01*
X289684Y10046745D01*
X153295Y9995615D01*
X36739Y9908261D01*
X-50615Y9791705D01*
X-101745Y9655316D01*
X-108500Y9593134D01*
X-108500Y9031832D01*
X-114667Y8992896D01*
X-118954Y8979702D01*
X-133500Y8841306D01*
X-133500Y5829457D01*
X-135051Y5809745D01*
X-137150Y5796493D01*
X-3114049Y5796493D01*
X-1681454Y7229088D01*
X-1666426Y7241925D01*
X-1655566Y7249815D01*
X-1611114Y7299184D01*
X-1606573Y7303969D01*
X-1592528Y7318014D01*
X-1590441Y7320591D01*
X-1580031Y7333446D01*
X-1575747Y7338462D01*
X-1535717Y7382920D01*
X-1535713Y7382925D01*
X-1531296Y7387831D01*
X-1524589Y7399448D01*
X-1513391Y7415741D01*
X-1509109Y7421029D01*
X-1504953Y7426161D01*
X-1474787Y7485363D01*
X-1471654Y7491133D01*
X-1441740Y7542945D01*
X-1441738Y7542950D01*
X-1438436Y7548669D01*
X-1436395Y7554949D01*
X-1436392Y7554957D01*
X-1434292Y7561421D01*
X-1426728Y7579683D01*
X-1423637Y7585749D01*
X-1423634Y7585758D01*
X-1420638Y7591637D01*
X-1403444Y7655804D01*
X-1401578Y7662106D01*
X-1381046Y7725298D01*
X-1379645Y7738628D01*
X-1376042Y7758071D01*
X-1372570Y7771029D01*
X-1371517Y7791109D01*
X-1369094Y7837354D01*
X-1368577Y7843929D01*
X-1366844Y7860421D01*
X-1366500Y7863694D01*
X-1366500Y7883568D01*
X-1366327Y7890162D01*
X-1363196Y7949901D01*
X-1363196Y7949905D01*
X-1362851Y7956493D01*
X-1364949Y7969740D01*
X-1366500Y7989450D01*
X-1366500Y8841306D01*
X-1381046Y8979702D01*
X-1385333Y8992896D01*
X-1391500Y9031832D01*
X-1391500Y9491971D01*
X-1371498Y9560092D01*
X-1317842Y9606585D01*
X-1303185Y9612203D01*
X-1226153Y9636343D01*
X-1126549Y9667556D01*
X-1126544Y9667558D01*
X-1120459Y9669465D01*
X-1006163Y9732821D01*
X-955729Y9760777D01*
X-955726Y9760779D01*
X-950150Y9763870D01*
X-945309Y9768019D01*
X-945305Y9768022D01*
X-807145Y9886440D01*
X-802302Y9890591D01*
X-788595Y9908261D01*
X-686869Y10039406D01*
X-682954Y10044453D01*
X-678683Y10053131D01*
X-599800Y10213444D01*
X-596982Y10219171D01*
X-586524Y10259319D01*
X-549508Y10401425D01*
X-549508Y10401428D01*
X-547898Y10407607D01*
X-537707Y10602064D01*
X-566825Y10794599D01*
X-569028Y10800585D01*
X-569029Y10800591D01*
X-631860Y10971360D01*
X-631862Y10971365D01*
X-634063Y10977346D01*
X-736674Y11142840D01*
X-814991Y11225659D01*
X-866081Y11279685D01*
X-870466Y11284322D01*
X-898650Y11304057D01*
X-1024741Y11392346D01*
X-1029975Y11396011D01*
X-1113136Y11431998D01*
X-1202825Y11470810D01*
X-1202829Y11470811D01*
X-1208684Y11473345D01*
X-1214931Y11474650D01*
X-1214934Y11474651D01*
X-1394557Y11512176D01*
X-1394562Y11512177D01*
X-1399293Y11513165D01*
X-1405685Y11513500D01*
X-1548663Y11513500D01*
X-1617951Y11506462D01*
X-1687378Y11499410D01*
X-1687379Y11499410D01*
X-1693727Y11498765D01*
X-1750061Y11481111D01*
X-1873451Y11442444D01*
X-1873456Y11442442D01*
X-1879541Y11440535D01*
X-1948902Y11402087D01*
X-2044271Y11349223D01*
X-2044274Y11349221D01*
X-2049850Y11346130D01*
X-2054691Y11341981D01*
X-2054695Y11341978D01*
X-2100583Y11302647D01*
X-2197698Y11219409D01*
X-2201609Y11214367D01*
X-2201610Y11214366D01*
X-2249567Y11152540D01*
X-2317046Y11065547D01*
X-2319862Y11059824D01*
X-2319864Y11059821D01*
X-2363392Y10971360D01*
X-2403018Y10890829D01*
X-2404627Y10884651D01*
X-2404628Y10884649D01*
X-2438853Y10753255D01*
X-2452102Y10702393D01*
X-2452436Y10696014D01*
X-2460155Y10548726D01*
X-2462293Y10507936D01*
X-2433175Y10315401D01*
X-2430972Y10309415D01*
X-2430971Y10309409D01*
X-2399181Y10223008D01*
X-2394431Y10152170D01*
X-2428732Y10090010D01*
X-2491195Y10056262D01*
X-2517431Y10053500D01*
X-2607725Y10053500D01*
X-2675846Y10073502D01*
X-2708551Y10103935D01*
X-2744701Y10152170D01*
X-2786739Y10208261D01*
X-2903295Y10295615D01*
X-3039684Y10346745D01*
X-3101866Y10353500D01*
X-4198134Y10353500D01*
X-4260316Y10346745D01*
X-4396705Y10295615D01*
X-4513261Y10208261D01*
X-4600615Y10091705D01*
X-4651745Y9955316D01*
X-4658500Y9893134D01*
X-4658500Y8996866D01*
X-4651745Y8934684D01*
X-4600615Y8798295D01*
X-4513261Y8681739D01*
X-4396705Y8594385D01*
X-4260316Y8543255D01*
X-4198134Y8536500D01*
X-3259500Y8536500D01*
X-3191379Y8516498D01*
X-3144886Y8462842D01*
X-3133500Y8410500D01*
X-3133500Y8328148D01*
X-3153502Y8260027D01*
X-3170405Y8239053D01*
X-5268546Y6140912D01*
X-5283574Y6128075D01*
X-5294434Y6120185D01*
X-5298855Y6115275D01*
X-5298856Y6115274D01*
X-5338886Y6070816D01*
X-5343427Y6066031D01*
X-5357472Y6051986D01*
X-5359556Y6049412D01*
X-5359559Y6049409D01*
X-5369969Y6036554D01*
X-5374253Y6031538D01*
X-5414283Y5987080D01*
X-5414287Y5987075D01*
X-5418704Y5982169D01*
X-5425209Y5970903D01*
X-5425411Y5970552D01*
X-5436609Y5954259D01*
X-5445047Y5943839D01*
X-5475213Y5884637D01*
X-5478346Y5878867D01*
X-5508260Y5827055D01*
X-5508262Y5827050D01*
X-5511564Y5821331D01*
X-5513605Y5815051D01*
X-5513608Y5815043D01*
X-5515708Y5808579D01*
X-5523272Y5790317D01*
X-5526363Y5784251D01*
X-5526366Y5784242D01*
X-5529362Y5778363D01*
X-5531071Y5771985D01*
X-5546556Y5714196D01*
X-5548422Y5707894D01*
X-5568954Y5644702D01*
X-5569644Y5638134D01*
X-5570355Y5631372D01*
X-5573958Y5611929D01*
X-5577430Y5598971D01*
X-5577775Y5592381D01*
X-5577776Y5592377D01*
X-5580907Y5532633D01*
X-5581423Y5526069D01*
X-5583500Y5506306D01*
X-5583500Y5486445D01*
X-5583673Y5479850D01*
X-5586508Y5425749D01*
X-5587150Y5413507D01*
X-5585051Y5400256D01*
X-5583500Y5380544D01*
X-5583500Y-3462852D01*
X-5603502Y-3530973D01*
X-5657158Y-3577466D01*
X-5727432Y-3587570D01*
X-5792012Y-3558076D01*
X-5798595Y-3551947D01*
X-5808014Y-3542528D01*
X-5810591Y-3540441D01*
X-5823446Y-3530031D01*
X-5828462Y-3525747D01*
X-5872920Y-3485717D01*
X-5872925Y-3485713D01*
X-5877831Y-3481296D01*
X-5889448Y-3474589D01*
X-5905741Y-3463391D01*
X-5911029Y-3459109D01*
X-5916161Y-3454953D01*
X-5975363Y-3424787D01*
X-5981133Y-3421654D01*
X-6032945Y-3391740D01*
X-6032950Y-3391738D01*
X-6038669Y-3388436D01*
X-6044949Y-3386395D01*
X-6044957Y-3386392D01*
X-6051421Y-3384292D01*
X-6069683Y-3376728D01*
X-6075749Y-3373637D01*
X-6075758Y-3373634D01*
X-6081637Y-3370638D01*
X-6092328Y-3367773D01*
X-6145804Y-3353444D01*
X-6152106Y-3351578D01*
X-6215298Y-3331046D01*
X-6228628Y-3329645D01*
X-6248071Y-3326042D01*
X-6261029Y-3322570D01*
X-6267619Y-3322225D01*
X-6267623Y-3322224D01*
X-6311573Y-3319921D01*
X-6327372Y-3319093D01*
X-6333931Y-3318577D01*
X-6353694Y-3316500D01*
X-6373555Y-3316500D01*
X-6380150Y-3316327D01*
X-6439902Y-3313195D01*
X-6439906Y-3313195D01*
X-6446493Y-3312850D01*
X-6459747Y-3314949D01*
X-6479456Y-3316500D01*
X-6799473Y-3316500D01*
X-6867594Y-3296498D01*
X-6895922Y-3271578D01*
X-6920054Y-3242869D01*
X-7028639Y-3145782D01*
X-7032372Y-3143297D01*
X-7032376Y-3143294D01*
X-7144135Y-3068901D01*
X-7144137Y-3068900D01*
X-7147864Y-3066419D01*
X-7279333Y-3003711D01*
X-7283612Y-3002374D01*
X-7283615Y-3002373D01*
X-7411760Y-2962338D01*
X-7411758Y-2962338D01*
X-7416039Y-2961001D01*
X-7420463Y-2960284D01*
X-7420465Y-2960284D01*
X-7462300Y-2953508D01*
X-7559821Y-2937713D01*
X-7626782Y-2936486D01*
X-7698539Y-2935170D01*
X-7698541Y-2935170D01*
X-7703020Y-2935088D01*
X-7707465Y-2935641D01*
X-7711944Y-2935878D01*
X-7711951Y-2935751D01*
X-7720339Y-2936271D01*
X-7940500Y-2936271D01*
X-8008621Y-2916269D01*
X-8055114Y-2862613D01*
X-8066500Y-2810271D01*
X-8066500Y-1679457D01*
X-8064949Y-1659745D01*
X-8063882Y-1653008D01*
X-8062850Y-1646493D01*
X-8066327Y-1580150D01*
X-8066500Y-1573555D01*
X-8066500Y-1553694D01*
X-8068577Y-1533931D01*
X-8069093Y-1527367D01*
X-8072224Y-1467623D01*
X-8072225Y-1467619D01*
X-8072570Y-1461029D01*
X-8076042Y-1448071D01*
X-8079645Y-1428628D01*
X-8080356Y-1421866D01*
X-8081046Y-1415298D01*
X-8101578Y-1352106D01*
X-8103444Y-1345804D01*
X-8118929Y-1288015D01*
X-8120638Y-1281637D01*
X-8123634Y-1275758D01*
X-8123637Y-1275749D01*
X-8126728Y-1269683D01*
X-8134292Y-1251421D01*
X-8136392Y-1244958D01*
X-8136394Y-1244953D01*
X-8138436Y-1238669D01*
X-8171663Y-1181119D01*
X-8174786Y-1175366D01*
X-8204952Y-1116161D01*
X-8213393Y-1105737D01*
X-8224588Y-1089449D01*
X-8227995Y-1083548D01*
X-8227996Y-1083547D01*
X-8231296Y-1077831D01*
X-8235713Y-1072925D01*
X-8235717Y-1072920D01*
X-8275747Y-1028462D01*
X-8280031Y-1023447D01*
X-8290452Y-1010579D01*
X-8292528Y-1008015D01*
X-8306564Y-993979D01*
X-8311105Y-989194D01*
X-8351144Y-944726D01*
X-8351145Y-944725D01*
X-8355566Y-939815D01*
X-8360906Y-935935D01*
X-8360914Y-935928D01*
X-8366422Y-931927D01*
X-8381457Y-919086D01*
X-9004595Y-295948D01*
X-9038621Y-233636D01*
X-9041500Y-206853D01*
X-9041500Y1096328D01*
X-9041808Y1102408D01*
X-9080900Y1296284D01*
X-9156905Y1478873D01*
X-9160332Y1483992D01*
X-9160334Y1483996D01*
X-9263496Y1638099D01*
X-9263500Y1638104D01*
X-9266927Y1643223D01*
X-9406777Y1783073D01*
X-9411896Y1786500D01*
X-9411901Y1786504D01*
X-9566004Y1889666D01*
X-9566008Y1889668D01*
X-9571127Y1893095D01*
X-9753716Y1969100D01*
X-9759752Y1970317D01*
X-9759755Y1970318D01*
X-9943004Y2007267D01*
X-9943005Y2007267D01*
X-9947592Y2008192D01*
X-9953672Y2008500D01*
X-11146328Y2008500D01*
X-11152408Y2008192D01*
X-11156995Y2007267D01*
X-11156996Y2007267D01*
X-11340245Y1970318D01*
X-11340248Y1970317D01*
X-11346284Y1969100D01*
X-11528873Y1893095D01*
X-11533992Y1889668D01*
X-11533996Y1889666D01*
X-11688099Y1786504D01*
X-11688104Y1786500D01*
X-11693223Y1783073D01*
X-11833073Y1643223D01*
X-11836500Y1638104D01*
X-11836504Y1638099D01*
X-11939666Y1483996D01*
X-11939668Y1483992D01*
X-11943095Y1478873D01*
X-12019100Y1296284D01*
X-12058192Y1102408D01*
X-12058500Y1096328D01*
X-12058500Y-1096328D01*
X-12440458Y-1096328D01*
X-12480297Y-526607D01*
X-12480592Y-519577D01*
X-12490233Y170904D01*
X-12490134Y177939D01*
X-12461219Y867832D01*
X-12460729Y874851D01*
X-12393344Y1562099D01*
X-12392462Y1569080D01*
X-12286822Y2251473D01*
X-12285552Y2258394D01*
X-12141981Y2933843D01*
X-12140326Y2940682D01*
X-11959279Y3607049D01*
X-11957245Y3613785D01*
X-11739284Y4268996D01*
X-11736878Y4275608D01*
X-11482673Y4917656D01*
X-11479901Y4924123D01*
X-11294515Y5325336D01*
X-11190250Y5550984D01*
X-11187126Y5557277D01*
X-11186196Y5559025D01*
X-10862948Y6166968D01*
X-10859477Y6173079D01*
X-10743246Y6364998D01*
X-10501760Y6763740D01*
X-10497949Y6769653D01*
X-10107820Y7339421D01*
X-10103696Y7345098D01*
X-9682354Y7892221D01*
X-9677922Y7897655D01*
X-9334078Y8296002D01*
X-9226714Y8420384D01*
X-9221976Y8425574D01*
X-8742275Y8922318D01*
X-8737282Y8927209D01*
X-8230594Y9396406D01*
X-8225303Y9401038D01*
X-8115384Y9491971D01*
X-7693242Y9841197D01*
X-7687720Y9845511D01*
X-7131885Y10255309D01*
X-7126114Y10259319D01*
X-7078878Y10290229D01*
X-6736436Y10514317D01*
X-6548316Y10637419D01*
X-6542323Y10641106D01*
X-5944316Y10986365D01*
X-5938127Y10989712D01*
X-5364079Y11279685D01*
X-5321758Y11301063D01*
X-5315395Y11304057D01*
X-5228597Y11341978D01*
X-4834943Y11513961D01*
X-4764513Y11522904D01*
X-4700428Y11492349D01*
X-4663035Y11431998D01*
X-4658500Y11398499D01*
X-4658500Y11206866D01*
X-4651745Y11144684D01*
X-4600615Y11008295D01*
X-4513261Y10891739D01*
X-4396705Y10804385D01*
X-4260316Y10753255D01*
X-4198134Y10746500D01*
X-3101866Y10746500D01*
X-3039684Y10753255D01*
X-2903295Y10804385D01*
X-2786739Y10891739D01*
X-2699385Y11008295D01*
X-2648255Y11144684D01*
X-2641500Y11206866D01*
X-2641500Y12103134D01*
X-2639876Y12103134D01*
X-2625023Y12166001D01*
X-2573934Y12215301D01*
X-2539138Y12227424D01*
X-2382529Y12257299D01*
X-2000597Y12330157D01*
X-1993684Y12331276D01*
X-1455274Y12403115D01*
X-1309216Y12422603D01*
X-1302219Y12423339D01*
X-613703Y12476318D01*
X-606675Y12476661D01*
X-569924Y12477431D01*
X83685Y12491122D01*
X90721Y12491073D01*
G37*
%TD.AperFunction*%
%TD*%
M02*
