%TF.GenerationSoftware,KiCad,Pcbnew,(6.0.11)*%
%TF.CreationDate,2023-08-31T15:14:43+02:00*%
%TF.ProjectId,Origami robot,4f726967-616d-4692-9072-6f626f742e6b,rev?*%
%TF.SameCoordinates,Original*%
%TF.FileFunction,Legend,Top*%
%TF.FilePolarity,Positive*%
%FSLAX46Y46*%
G04 Gerber Fmt 4.6, Leading zero omitted, Abs format (unit mm)*
G04 Created by KiCad (PCBNEW (6.0.11)) date 2023-08-31 15:14:43*
%MOMM*%
%LPD*%
G01*
G04 APERTURE LIST*
G04 Aperture macros list*
%AMRoundRect*
0 Rectangle with rounded corners*
0 $1 Rounding radius*
0 $2 $3 $4 $5 $6 $7 $8 $9 X,Y pos of 4 corners*
0 Add a 4 corners polygon primitive as box body*
4,1,4,$2,$3,$4,$5,$6,$7,$8,$9,$2,$3,0*
0 Add four circle primitives for the rounded corners*
1,1,$1+$1,$2,$3*
1,1,$1+$1,$4,$5*
1,1,$1+$1,$6,$7*
1,1,$1+$1,$8,$9*
0 Add four rect primitives between the rounded corners*
20,1,$1+$1,$2,$3,$4,$5,0*
20,1,$1+$1,$4,$5,$6,$7,0*
20,1,$1+$1,$6,$7,$8,$9,0*
20,1,$1+$1,$8,$9,$2,$3,0*%
G04 Aperture macros list end*
%ADD10C,0.150000*%
%ADD11C,0.120000*%
%ADD12RoundRect,0.500000X-0.500000X-1.000000X0.500000X-1.000000X0.500000X1.000000X-0.500000X1.000000X0*%
%ADD13C,15.000000*%
%ADD14C,0.900000*%
G04 APERTURE END LIST*
D10*
X-1738095Y8247619D02*
X-1738095Y8914285D01*
X-1738095Y8723809D02*
X-1690476Y8819047D01*
X-1642857Y8866666D01*
X-1547619Y8914285D01*
X-1452380Y8914285D01*
X-738095Y8295238D02*
X-833333Y8247619D01*
X-1023809Y8247619D01*
X-1119047Y8295238D01*
X-1166666Y8390476D01*
X-1166666Y8771428D01*
X-1119047Y8866666D01*
X-1023809Y8914285D01*
X-833333Y8914285D01*
X-738095Y8866666D01*
X-690476Y8771428D01*
X-690476Y8676190D01*
X-1166666Y8580952D01*
X-357142Y8914285D02*
X-119047Y8247619D01*
X119047Y8914285D01*
X1785714Y8247619D02*
X1214285Y8247619D01*
X1500000Y8247619D02*
X1500000Y9247619D01*
X1404761Y9104761D01*
X1309523Y9009523D01*
X1214285Y8961904D01*
%TO.C,BT1*%
X8164285Y3621428D02*
X8307142Y3573809D01*
X8354761Y3526190D01*
X8402380Y3430952D01*
X8402380Y3288095D01*
X8354761Y3192857D01*
X8307142Y3145238D01*
X8211904Y3097619D01*
X7830952Y3097619D01*
X7830952Y4097619D01*
X8164285Y4097619D01*
X8259523Y4050000D01*
X8307142Y4002380D01*
X8354761Y3907142D01*
X8354761Y3811904D01*
X8307142Y3716666D01*
X8259523Y3669047D01*
X8164285Y3621428D01*
X7830952Y3621428D01*
X8688095Y4097619D02*
X9259523Y4097619D01*
X8973809Y3097619D02*
X8973809Y4097619D01*
X10116666Y3097619D02*
X9545238Y3097619D01*
X9830952Y3097619D02*
X9830952Y4097619D01*
X9735714Y3954761D01*
X9640476Y3859523D01*
X9545238Y3811904D01*
D11*
X10470000Y-4885000D02*
X8862910Y-4885000D01*
X3750000Y-10120000D02*
X3750000Y-9400000D01*
X-3750000Y-10120000D02*
X3750000Y-10120000D01*
X10470000Y4885000D02*
X8862910Y4885000D01*
X10470000Y-3000000D02*
X10470000Y-4885000D01*
X-10470000Y3000000D02*
X-10470000Y4885000D01*
X-10470000Y4885000D02*
X-8862910Y4885000D01*
X-3750000Y-10120000D02*
X-3750000Y-9400000D01*
X-10470000Y-4885000D02*
X-8862910Y-4885000D01*
X10470000Y3000000D02*
X10470000Y4885000D01*
X-10470000Y-3000000D02*
X-10470000Y-4885000D01*
X8862910Y4885000D02*
G75*
G03*
X-8862910Y4885000I-8862910J-4885000D01*
G01*
X-8862910Y-4885000D02*
G75*
G03*
X8865021Y-4881168I8862910J4884999D01*
G01*
%TD*%
%LPC*%
D12*
%TO.C,BT1*%
X10550000Y0D03*
X-10550000Y0D03*
D13*
X0Y0D03*
%TD*%
D14*
%TO.C,SW1*%
X1500000Y10555000D03*
X-1500000Y10555000D03*
%TD*%
M02*
