%TF.GenerationSoftware,KiCad,Pcbnew,(6.0.11)*%
%TF.CreationDate,2023-08-31T15:14:43+02:00*%
%TF.ProjectId,Origami robot,4f726967-616d-4692-9072-6f626f742e6b,rev?*%
%TF.SameCoordinates,Original*%
%TF.FileFunction,Copper,L1,Top*%
%TF.FilePolarity,Positive*%
%FSLAX46Y46*%
G04 Gerber Fmt 4.6, Leading zero omitted, Abs format (unit mm)*
G04 Created by KiCad (PCBNEW (6.0.11)) date 2023-08-31 15:14:43*
%MOMM*%
%LPD*%
G01*
G04 APERTURE LIST*
G04 Aperture macros list*
%AMRoundRect*
0 Rectangle with rounded corners*
0 $1 Rounding radius*
0 $2 $3 $4 $5 $6 $7 $8 $9 X,Y pos of 4 corners*
0 Add a 4 corners polygon primitive as box body*
4,1,4,$2,$3,$4,$5,$6,$7,$8,$9,$2,$3,0*
0 Add four circle primitives for the rounded corners*
1,1,$1+$1,$2,$3*
1,1,$1+$1,$4,$5*
1,1,$1+$1,$6,$7*
1,1,$1+$1,$8,$9*
0 Add four rect primitives between the rounded corners*
20,1,$1+$1,$2,$3,$4,$5,0*
20,1,$1+$1,$4,$5,$6,$7,0*
20,1,$1+$1,$6,$7,$8,$9,0*
20,1,$1+$1,$8,$9,$2,$3,0*%
G04 Aperture macros list end*
%TA.AperFunction,ComponentPad*%
%ADD10RoundRect,0.500000X-0.500000X-1.000000X0.500000X-1.000000X0.500000X1.000000X-0.500000X1.000000X0*%
%TD*%
%TA.AperFunction,SMDPad,CuDef*%
%ADD11C,15.000000*%
%TD*%
%TA.AperFunction,ViaPad*%
%ADD12C,0.800000*%
%TD*%
%TA.AperFunction,Conductor*%
%ADD13C,0.750000*%
%TD*%
G04 APERTURE END LIST*
D10*
%TO.P,BT1,1,+*%
%TO.N,+3.3V*%
X10550000Y0D03*
X-10550000Y0D03*
D11*
%TO.P,BT1,2,-*%
%TO.N,GND*%
X0Y0D03*
%TD*%
D12*
%TO.N,GND*%
X0Y-8800000D03*
X-2000000Y-8600000D03*
X2000000Y-8600000D03*
%TD*%
D13*
%TO.N,GND*%
X0Y0D02*
X0Y-8800000D01*
X0Y0D02*
X-2000000Y-2000000D01*
X2000000Y-2200000D02*
X2000000Y-8600000D01*
X0Y0D02*
X2200000Y-2200000D01*
X-2000000Y-2000000D02*
X-2000000Y-8600000D01*
%TD*%
%TA.AperFunction,Conductor*%
%TO.N,+3.3V*%
G36*
X90721Y12491073D02*
G01*
X435777Y12479024D01*
X780842Y12466973D01*
X787847Y12466533D01*
X1131695Y12435240D01*
X1475535Y12403948D01*
X1482521Y12403115D01*
X1898751Y12341652D01*
X2165656Y12302238D01*
X2172564Y12301020D01*
X2848993Y12162170D01*
X2855830Y12160567D01*
X3042585Y12111224D01*
X3523471Y11984168D01*
X3530221Y11982181D01*
X4186938Y11768801D01*
X4193567Y11766441D01*
X4837378Y11516723D01*
X4843864Y11513996D01*
X5189291Y11357303D01*
X5472714Y11228737D01*
X5479014Y11225665D01*
X5647815Y11137418D01*
X6090985Y10905734D01*
X6097111Y10902311D01*
X6590180Y10608382D01*
X6690254Y10548726D01*
X6696194Y10544956D01*
X7268673Y10158815D01*
X7274391Y10154721D01*
X7738670Y9802315D01*
X7824416Y9737230D01*
X7829897Y9732824D01*
X8355772Y9285269D01*
X8360983Y9280577D01*
X8861057Y8804363D01*
X8866006Y8799379D01*
X9338718Y8295992D01*
X9343373Y8290750D01*
X9580208Y8008500D01*
X9787248Y7761759D01*
X9791618Y7756245D01*
X10205258Y7203320D01*
X10209314Y7197570D01*
X10591442Y6622423D01*
X10595171Y6616456D01*
X10944610Y6020851D01*
X10947999Y6014685D01*
X11263625Y5400543D01*
X11266666Y5394198D01*
X11547539Y4763348D01*
X11550220Y4756842D01*
X11795425Y4111333D01*
X11797739Y4104689D01*
X12006539Y3446470D01*
X12008474Y3439720D01*
X12146585Y2901816D01*
X12180203Y2770882D01*
X12181760Y2764030D01*
X12278672Y2274585D01*
X12315883Y2086656D01*
X12317057Y2079719D01*
X12413163Y1395893D01*
X12413947Y1388900D01*
X12471728Y700805D01*
X12472121Y693780D01*
X12491426Y2642D01*
X12491463Y-2635D01*
X12486667Y-346140D01*
X12486483Y-351415D01*
X12447887Y-1041752D01*
X12447298Y-1048763D01*
X12370325Y-1734996D01*
X12369346Y-1741960D01*
X12324557Y-2006767D01*
X12254190Y-2422797D01*
X12252826Y-2429691D01*
X12099836Y-3103082D01*
X12098090Y-3109881D01*
X11928263Y-3702136D01*
X11907749Y-3773677D01*
X11905621Y-3780383D01*
X11678537Y-4432483D01*
X11676042Y-4439053D01*
X11564305Y-4710148D01*
X11412894Y-5077498D01*
X11410035Y-5083920D01*
X11178792Y-5566563D01*
X11111667Y-5706663D01*
X11108456Y-5712911D01*
X11025172Y-5864404D01*
X10775782Y-6318041D01*
X10772221Y-6324110D01*
X10406301Y-6909706D01*
X10402407Y-6915567D01*
X10386139Y-6938628D01*
X10040227Y-7428990D01*
X10004363Y-7479830D01*
X10000154Y-7485456D01*
X9959250Y-7537064D01*
X9571236Y-8026615D01*
X9566714Y-8032005D01*
X9108234Y-8548404D01*
X9103437Y-8553512D01*
X9047271Y-8610072D01*
X8616855Y-9043503D01*
X8611765Y-9048351D01*
X8098589Y-9510415D01*
X8093267Y-9514945D01*
X7995188Y-9593803D01*
X7555096Y-9947645D01*
X7549492Y-9951899D01*
X6987991Y-10353895D01*
X6982190Y-10357807D01*
X6409976Y-10720945D01*
X6399155Y-10727812D01*
X6393114Y-10731413D01*
X6258757Y-10806503D01*
X5790340Y-11068292D01*
X5784105Y-11071552D01*
X5163460Y-11374261D01*
X5157058Y-11377165D01*
X4988397Y-11448064D01*
X4520470Y-11644762D01*
X4513910Y-11647306D01*
X4225836Y-11749885D01*
X3863401Y-11878941D01*
X3856731Y-11881109D01*
X3680898Y-11932860D01*
X3194270Y-12076082D01*
X3187467Y-12077879D01*
X2515196Y-12235559D01*
X2508304Y-12236974D01*
X2316440Y-12270805D01*
X1828247Y-12356887D01*
X1821320Y-12357909D01*
X1135612Y-12439676D01*
X1128620Y-12440311D01*
X439450Y-12483671D01*
X432451Y-12483915D01*
X54078Y-12486557D01*
X-258077Y-12488735D01*
X-265111Y-12488588D01*
X-660732Y-12469239D01*
X-954835Y-12454855D01*
X-961827Y-12454317D01*
X-1391811Y-12409124D01*
X-1648587Y-12382136D01*
X-1655561Y-12381205D01*
X-2337190Y-12270805D01*
X-2344102Y-12269487D01*
X-3018527Y-12121205D01*
X-3025354Y-12119503D01*
X-3540498Y-11975673D01*
X-3690461Y-11933803D01*
X-3697161Y-11931728D01*
X-4087419Y-11798874D01*
X-4350868Y-11709188D01*
X-4357462Y-11706735D01*
X-4753583Y-11546692D01*
X-4997704Y-11448061D01*
X-5004136Y-11445251D01*
X-5628943Y-11151239D01*
X-5635222Y-11148068D01*
X-6242657Y-10819628D01*
X-6248750Y-10816110D01*
X-6836888Y-10454285D01*
X-6842776Y-10450432D01*
X-7409812Y-10056332D01*
X-7415475Y-10052156D01*
X-7959603Y-9627037D01*
X-7965025Y-9622552D01*
X-8484583Y-9167714D01*
X-8489746Y-9162934D01*
X-8673116Y-8983365D01*
X-8983146Y-8679760D01*
X-8988003Y-8674730D01*
X-9453624Y-8164809D01*
X-9458222Y-8159483D01*
X-9894664Y-7624352D01*
X-9898957Y-7618777D01*
X-10304840Y-7060127D01*
X-10308815Y-7054321D01*
X-10402013Y-6909706D01*
X-10682882Y-6473883D01*
X-10686511Y-6467893D01*
X-11027602Y-5867463D01*
X-11030902Y-5861258D01*
X-11107643Y-5706663D01*
X-11337941Y-5242730D01*
X-11340890Y-5236348D01*
X-11462463Y-4952698D01*
X-11612921Y-4601653D01*
X-11615508Y-4595118D01*
X-11686688Y-4399551D01*
X-11851682Y-3946235D01*
X-11853903Y-3939558D01*
X-12053486Y-3278509D01*
X-12055331Y-3271719D01*
X-12058326Y-3259336D01*
X-12155969Y-2855728D01*
X-12217703Y-2600550D01*
X-12219166Y-2593667D01*
X-12343821Y-1914478D01*
X-12344897Y-1907525D01*
X-12431441Y-1222455D01*
X-12432128Y-1215452D01*
X-12440573Y-1094681D01*
X-12058000Y-1094681D01*
X-12057923Y-1097733D01*
X-12056767Y-1106945D01*
X-12019838Y-1290091D01*
X-12016248Y-1301833D01*
X-11945022Y-1472943D01*
X-11939222Y-1483759D01*
X-11836115Y-1637779D01*
X-11828322Y-1647266D01*
X-11697266Y-1778322D01*
X-11687779Y-1786115D01*
X-11533759Y-1889222D01*
X-11522943Y-1895022D01*
X-11351833Y-1966248D01*
X-11340091Y-1969838D01*
X-11156945Y-2006767D01*
X-11147733Y-2007923D01*
X-11144681Y-2008000D01*
X-10822115Y-2008000D01*
X-10806876Y-2003525D01*
X-10805671Y-2002135D01*
X-10804000Y-1994452D01*
X-10804000Y-1989885D01*
X-10296000Y-1989885D01*
X-10291525Y-2005124D01*
X-10290135Y-2006329D01*
X-10282452Y-2008000D01*
X-9955319Y-2008000D01*
X-9952267Y-2007923D01*
X-9943055Y-2006767D01*
X-9759909Y-1969838D01*
X-9748167Y-1966248D01*
X-9577057Y-1895022D01*
X-9566241Y-1889222D01*
X-9412221Y-1786115D01*
X-9402734Y-1778322D01*
X-9271678Y-1647266D01*
X-9263885Y-1637779D01*
X-9160778Y-1483759D01*
X-9154978Y-1472943D01*
X-9083752Y-1301833D01*
X-9080162Y-1290091D01*
X-9043233Y-1106945D01*
X-9042077Y-1097733D01*
X-9042000Y-1094681D01*
X-9042000Y-272115D01*
X-9046475Y-256876D01*
X-9047865Y-255671D01*
X-9055548Y-254000D01*
X-10277885Y-254000D01*
X-10293124Y-258475D01*
X-10294329Y-259865D01*
X-10296000Y-267548D01*
X-10296000Y-1989885D01*
X-10804000Y-1989885D01*
X-10804000Y-272115D01*
X-10808475Y-256876D01*
X-10809865Y-255671D01*
X-10817548Y-254000D01*
X-12039885Y-254000D01*
X-12055124Y-258475D01*
X-12056329Y-259865D01*
X-12058000Y-267548D01*
X-12058000Y-1094681D01*
X-12440573Y-1094681D01*
X-12480297Y-526607D01*
X-12480592Y-519577D01*
X-12487847Y0D01*
X-8013382Y0D01*
X-7993862Y-558985D01*
X-7935396Y-1115247D01*
X-7935014Y-1117412D01*
X-7858173Y-1553198D01*
X-7838270Y-1666076D01*
X-7702957Y-2208787D01*
X-7702275Y-2210886D01*
X-7702273Y-2210893D01*
X-7576777Y-2597129D01*
X-7530116Y-2740738D01*
X-7529291Y-2742779D01*
X-7529287Y-2742791D01*
X-7321417Y-3257288D01*
X-7321411Y-3257301D01*
X-7320589Y-3259336D01*
X-7319625Y-3261312D01*
X-7319623Y-3261317D01*
X-7314549Y-3271719D01*
X-7075396Y-3762055D01*
X-6795733Y-4246445D01*
X-6794505Y-4248265D01*
X-6794501Y-4248272D01*
X-6692462Y-4399551D01*
X-6482962Y-4710148D01*
X-6138607Y-5150903D01*
X-6137123Y-5152551D01*
X-5765816Y-5564930D01*
X-5765807Y-5564940D01*
X-5764345Y-5566563D01*
X-5361999Y-5955103D01*
X-5360319Y-5956513D01*
X-5360312Y-5956519D01*
X-4935227Y-6313208D01*
X-4933531Y-6314631D01*
X-4931748Y-6315927D01*
X-4931737Y-6315935D01*
X-4482814Y-6642096D01*
X-4481026Y-6643395D01*
X-4006691Y-6939792D01*
X-3512835Y-7202380D01*
X-3510829Y-7203273D01*
X-3510819Y-7203278D01*
X-3003861Y-7428990D01*
X-3003855Y-7428992D01*
X-3001866Y-7429878D01*
X-2999817Y-7430624D01*
X-2999809Y-7430627D01*
X-2966405Y-7442785D01*
X-2909234Y-7484880D01*
X-2883896Y-7551201D01*
X-2883500Y-7561186D01*
X-2883500Y-8359210D01*
X-2889667Y-8398146D01*
X-2893542Y-8410072D01*
X-2913504Y-8600000D01*
X-2893542Y-8789928D01*
X-2834527Y-8971556D01*
X-2739040Y-9136944D01*
X-2734622Y-9141851D01*
X-2734621Y-9141852D01*
X-2615675Y-9273955D01*
X-2611253Y-9278866D01*
X-2456752Y-9391118D01*
X-2450724Y-9393802D01*
X-2450722Y-9393803D01*
X-2288319Y-9466109D01*
X-2282288Y-9468794D01*
X-2216635Y-9482749D01*
X-2101944Y-9507128D01*
X-2101939Y-9507128D01*
X-2095487Y-9508500D01*
X-1904513Y-9508500D01*
X-1898061Y-9507128D01*
X-1898056Y-9507128D01*
X-1783365Y-9482749D01*
X-1717712Y-9468794D01*
X-1711681Y-9466109D01*
X-1549278Y-9393803D01*
X-1549276Y-9393802D01*
X-1543248Y-9391118D01*
X-1388747Y-9278866D01*
X-1384325Y-9273955D01*
X-1265379Y-9141852D01*
X-1265378Y-9141851D01*
X-1260960Y-9136944D01*
X-1165473Y-8971556D01*
X-1144645Y-8907454D01*
X-1104571Y-8848849D01*
X-1039174Y-8821212D01*
X-969218Y-8833319D01*
X-916912Y-8881325D01*
X-899502Y-8933221D01*
X-894871Y-8977279D01*
X-893542Y-8989928D01*
X-834527Y-9171556D01*
X-739040Y-9336944D01*
X-734622Y-9341851D01*
X-734621Y-9341852D01*
X-620322Y-9468794D01*
X-611253Y-9478866D01*
X-456752Y-9591118D01*
X-450724Y-9593802D01*
X-450722Y-9593803D01*
X-288319Y-9666109D01*
X-282288Y-9668794D01*
X-188887Y-9688647D01*
X-101944Y-9707128D01*
X-101939Y-9707128D01*
X-95487Y-9708500D01*
X95487Y-9708500D01*
X101939Y-9707128D01*
X101944Y-9707128D01*
X188887Y-9688647D01*
X282288Y-9668794D01*
X288319Y-9666109D01*
X450722Y-9593803D01*
X450724Y-9593802D01*
X456752Y-9591118D01*
X611253Y-9478866D01*
X620322Y-9468794D01*
X734621Y-9341852D01*
X734622Y-9341851D01*
X739040Y-9336944D01*
X834527Y-9171556D01*
X893542Y-8989928D01*
X894872Y-8977279D01*
X899502Y-8933221D01*
X926515Y-8867564D01*
X984737Y-8826934D01*
X1055682Y-8824231D01*
X1116826Y-8860313D01*
X1144645Y-8907453D01*
X1165473Y-8971556D01*
X1260960Y-9136944D01*
X1265378Y-9141851D01*
X1265379Y-9141852D01*
X1384325Y-9273955D01*
X1388747Y-9278866D01*
X1543248Y-9391118D01*
X1549276Y-9393802D01*
X1549278Y-9393803D01*
X1711681Y-9466109D01*
X1717712Y-9468794D01*
X1783365Y-9482749D01*
X1898056Y-9507128D01*
X1898061Y-9507128D01*
X1904513Y-9508500D01*
X2095487Y-9508500D01*
X2101939Y-9507128D01*
X2101944Y-9507128D01*
X2216635Y-9482749D01*
X2282288Y-9468794D01*
X2288319Y-9466109D01*
X2450722Y-9393803D01*
X2450724Y-9393802D01*
X2456752Y-9391118D01*
X2611253Y-9278866D01*
X2615675Y-9273955D01*
X2734621Y-9141852D01*
X2734622Y-9141851D01*
X2739040Y-9136944D01*
X2834527Y-8971556D01*
X2893542Y-8789928D01*
X2913504Y-8600000D01*
X2893542Y-8410072D01*
X2889667Y-8398146D01*
X2883500Y-8359210D01*
X2883500Y-7561186D01*
X2903502Y-7493065D01*
X2957158Y-7446572D01*
X2966405Y-7442785D01*
X2999809Y-7430627D01*
X2999817Y-7430624D01*
X3001866Y-7429878D01*
X3003855Y-7428992D01*
X3003861Y-7428990D01*
X3510819Y-7203278D01*
X3510829Y-7203273D01*
X3512835Y-7202380D01*
X4006691Y-6939792D01*
X4481026Y-6643395D01*
X4482814Y-6642096D01*
X4931737Y-6315935D01*
X4931748Y-6315927D01*
X4933531Y-6314631D01*
X4935227Y-6313208D01*
X5360312Y-5956519D01*
X5360319Y-5956513D01*
X5361999Y-5955103D01*
X5764345Y-5566563D01*
X5765807Y-5564940D01*
X5765816Y-5564930D01*
X6137123Y-5152551D01*
X6138607Y-5150903D01*
X6482962Y-4710148D01*
X6692462Y-4399551D01*
X6794501Y-4248272D01*
X6794505Y-4248265D01*
X6795733Y-4246445D01*
X7075396Y-3762055D01*
X7314550Y-3271719D01*
X7319623Y-3261317D01*
X7319625Y-3261312D01*
X7320589Y-3259336D01*
X7321411Y-3257301D01*
X7321417Y-3257288D01*
X7529287Y-2742791D01*
X7529291Y-2742779D01*
X7530116Y-2740738D01*
X7576778Y-2597129D01*
X7702273Y-2210893D01*
X7702275Y-2210886D01*
X7702957Y-2208787D01*
X7838270Y-1666076D01*
X7858174Y-1553198D01*
X7935014Y-1117412D01*
X7935396Y-1115247D01*
X7937558Y-1094681D01*
X9042000Y-1094681D01*
X9042077Y-1097733D01*
X9043233Y-1106945D01*
X9080162Y-1290091D01*
X9083752Y-1301833D01*
X9154978Y-1472943D01*
X9160778Y-1483759D01*
X9263885Y-1637779D01*
X9271678Y-1647266D01*
X9402734Y-1778322D01*
X9412221Y-1786115D01*
X9566241Y-1889222D01*
X9577057Y-1895022D01*
X9748167Y-1966248D01*
X9759909Y-1969838D01*
X9943055Y-2006767D01*
X9952267Y-2007923D01*
X9955319Y-2008000D01*
X10277885Y-2008000D01*
X10293124Y-2003525D01*
X10294329Y-2002135D01*
X10296000Y-1994452D01*
X10296000Y-1989885D01*
X10804000Y-1989885D01*
X10808475Y-2005124D01*
X10809865Y-2006329D01*
X10817548Y-2008000D01*
X11144681Y-2008000D01*
X11147733Y-2007923D01*
X11156945Y-2006767D01*
X11340091Y-1969838D01*
X11351833Y-1966248D01*
X11522943Y-1895022D01*
X11533759Y-1889222D01*
X11687779Y-1786115D01*
X11697266Y-1778322D01*
X11828322Y-1647266D01*
X11836115Y-1637779D01*
X11939222Y-1483759D01*
X11945022Y-1472943D01*
X12016248Y-1301833D01*
X12019838Y-1290091D01*
X12056767Y-1106945D01*
X12057923Y-1097733D01*
X12058000Y-1094681D01*
X12058000Y-272115D01*
X12053525Y-256876D01*
X12052135Y-255671D01*
X12044452Y-254000D01*
X10822115Y-254000D01*
X10806876Y-258475D01*
X10805671Y-259865D01*
X10804000Y-267548D01*
X10804000Y-1989885D01*
X10296000Y-1989885D01*
X10296000Y-272115D01*
X10291525Y-256876D01*
X10290135Y-255671D01*
X10282452Y-254000D01*
X9060115Y-254000D01*
X9044876Y-258475D01*
X9043671Y-259865D01*
X9042000Y-267548D01*
X9042000Y-1094681D01*
X7937558Y-1094681D01*
X7993862Y-558985D01*
X8013382Y0D01*
X8003880Y272115D01*
X9042000Y272115D01*
X9046475Y256876D01*
X9047865Y255671D01*
X9055548Y254000D01*
X10277885Y254000D01*
X10293124Y258475D01*
X10294329Y259865D01*
X10296000Y267548D01*
X10296000Y272115D01*
X10804000Y272115D01*
X10808475Y256876D01*
X10809865Y255671D01*
X10817548Y254000D01*
X12039885Y254000D01*
X12055124Y258475D01*
X12056329Y259865D01*
X12058000Y267548D01*
X12058000Y1094681D01*
X12057923Y1097733D01*
X12056767Y1106945D01*
X12019838Y1290091D01*
X12016248Y1301833D01*
X11945022Y1472943D01*
X11939222Y1483759D01*
X11836115Y1637779D01*
X11828322Y1647266D01*
X11697266Y1778322D01*
X11687779Y1786115D01*
X11533759Y1889222D01*
X11522943Y1895022D01*
X11351833Y1966248D01*
X11340091Y1969838D01*
X11156945Y2006767D01*
X11147733Y2007923D01*
X11144681Y2008000D01*
X10822115Y2008000D01*
X10806876Y2003525D01*
X10805671Y2002135D01*
X10804000Y1994452D01*
X10804000Y272115D01*
X10296000Y272115D01*
X10296000Y1989885D01*
X10291525Y2005124D01*
X10290135Y2006329D01*
X10282452Y2008000D01*
X9955319Y2008000D01*
X9952267Y2007923D01*
X9943055Y2006767D01*
X9759909Y1969838D01*
X9748167Y1966248D01*
X9577057Y1895022D01*
X9566241Y1889222D01*
X9412221Y1786115D01*
X9402734Y1778322D01*
X9271678Y1647266D01*
X9263885Y1637779D01*
X9160778Y1483759D01*
X9154978Y1472943D01*
X9083752Y1301833D01*
X9080162Y1290091D01*
X9043233Y1106945D01*
X9042077Y1097733D01*
X9042000Y1094681D01*
X9042000Y272115D01*
X8003880Y272115D01*
X7993862Y558985D01*
X7935396Y1115247D01*
X7838270Y1666076D01*
X7702957Y2208787D01*
X7702273Y2210893D01*
X7530800Y2738634D01*
X7530797Y2738643D01*
X7530116Y2740738D01*
X7529287Y2742791D01*
X7321417Y3257288D01*
X7321411Y3257301D01*
X7320589Y3259336D01*
X7319623Y3261317D01*
X7076366Y3760067D01*
X7076361Y3760076D01*
X7075396Y3762055D01*
X6795733Y4246445D01*
X6778264Y4272345D01*
X6484197Y4708317D01*
X6482962Y4710148D01*
X6138607Y5150903D01*
X5775513Y5554160D01*
X5765816Y5564930D01*
X5765807Y5564940D01*
X5764345Y5566563D01*
X5361999Y5955103D01*
X5360319Y5956513D01*
X5360312Y5956519D01*
X4935227Y6313208D01*
X4935225Y6313210D01*
X4933531Y6314631D01*
X4931748Y6315927D01*
X4931737Y6315935D01*
X4482814Y6642096D01*
X4482813Y6642097D01*
X4481026Y6643395D01*
X4006691Y6939792D01*
X3704578Y7100429D01*
X3514795Y7201338D01*
X3514792Y7201340D01*
X3512835Y7202380D01*
X3510829Y7203273D01*
X3510819Y7203278D01*
X3003861Y7428990D01*
X3003855Y7428992D01*
X3001866Y7429878D01*
X2999817Y7430624D01*
X2999809Y7430627D01*
X2478345Y7620424D01*
X2476271Y7621179D01*
X1995399Y7759067D01*
X1940737Y7774741D01*
X1940736Y7774741D01*
X1938613Y7775350D01*
X1391509Y7891641D01*
X837627Y7969484D01*
X835439Y7969637D01*
X281853Y8008347D01*
X281849Y8008347D01*
X279663Y8008500D01*
X-279663Y8008500D01*
X-281849Y8008347D01*
X-281853Y8008347D01*
X-835439Y7969637D01*
X-837627Y7969484D01*
X-1391509Y7891641D01*
X-1938613Y7775350D01*
X-1940736Y7774741D01*
X-1940737Y7774741D01*
X-1995399Y7759067D01*
X-2476271Y7621179D01*
X-2478345Y7620424D01*
X-2999809Y7430627D01*
X-2999817Y7430624D01*
X-3001866Y7429878D01*
X-3003855Y7428992D01*
X-3003861Y7428990D01*
X-3510819Y7203278D01*
X-3510829Y7203273D01*
X-3512835Y7202380D01*
X-3514792Y7201340D01*
X-3514795Y7201338D01*
X-3704578Y7100429D01*
X-4006691Y6939792D01*
X-4481026Y6643395D01*
X-4482813Y6642097D01*
X-4482814Y6642096D01*
X-4931737Y6315935D01*
X-4931748Y6315927D01*
X-4933531Y6314631D01*
X-4935225Y6313210D01*
X-4935227Y6313208D01*
X-5360312Y5956519D01*
X-5360319Y5956513D01*
X-5361999Y5955103D01*
X-5764345Y5566563D01*
X-5765807Y5564940D01*
X-5765816Y5564930D01*
X-5775513Y5554160D01*
X-6138607Y5150903D01*
X-6482962Y4710148D01*
X-6484197Y4708317D01*
X-6778263Y4272345D01*
X-6795733Y4246445D01*
X-7075396Y3762055D01*
X-7076361Y3760076D01*
X-7076366Y3760067D01*
X-7319623Y3261317D01*
X-7320589Y3259336D01*
X-7321411Y3257301D01*
X-7321417Y3257288D01*
X-7529287Y2742791D01*
X-7530116Y2740738D01*
X-7530797Y2738643D01*
X-7530800Y2738634D01*
X-7702273Y2210893D01*
X-7702957Y2208787D01*
X-7838270Y1666076D01*
X-7935396Y1115247D01*
X-7993862Y558985D01*
X-8013382Y0D01*
X-12487847Y0D01*
X-12490233Y170904D01*
X-12490134Y177939D01*
X-12486187Y272115D01*
X-12058000Y272115D01*
X-12053525Y256876D01*
X-12052135Y255671D01*
X-12044452Y254000D01*
X-10822115Y254000D01*
X-10806876Y258475D01*
X-10805671Y259865D01*
X-10804000Y267548D01*
X-10804000Y272115D01*
X-10296000Y272115D01*
X-10291525Y256876D01*
X-10290135Y255671D01*
X-10282452Y254000D01*
X-9060115Y254000D01*
X-9044876Y258475D01*
X-9043671Y259865D01*
X-9042000Y267548D01*
X-9042000Y1094681D01*
X-9042077Y1097733D01*
X-9043233Y1106945D01*
X-9080162Y1290091D01*
X-9083752Y1301833D01*
X-9154978Y1472943D01*
X-9160778Y1483759D01*
X-9263885Y1637779D01*
X-9271678Y1647266D01*
X-9402734Y1778322D01*
X-9412221Y1786115D01*
X-9566241Y1889222D01*
X-9577057Y1895022D01*
X-9748167Y1966248D01*
X-9759909Y1969838D01*
X-9943055Y2006767D01*
X-9952267Y2007923D01*
X-9955319Y2008000D01*
X-10277885Y2008000D01*
X-10293124Y2003525D01*
X-10294329Y2002135D01*
X-10296000Y1994452D01*
X-10296000Y272115D01*
X-10804000Y272115D01*
X-10804000Y1989885D01*
X-10808475Y2005124D01*
X-10809865Y2006329D01*
X-10817548Y2008000D01*
X-11144681Y2008000D01*
X-11147733Y2007923D01*
X-11156945Y2006767D01*
X-11340091Y1969838D01*
X-11351833Y1966248D01*
X-11522943Y1895022D01*
X-11533759Y1889222D01*
X-11687779Y1786115D01*
X-11697266Y1778322D01*
X-11828322Y1647266D01*
X-11836115Y1637779D01*
X-11939222Y1483759D01*
X-11945022Y1472943D01*
X-12016248Y1301833D01*
X-12019838Y1290091D01*
X-12056767Y1106945D01*
X-12057923Y1097733D01*
X-12058000Y1094681D01*
X-12058000Y272115D01*
X-12486187Y272115D01*
X-12461219Y867832D01*
X-12460729Y874851D01*
X-12393344Y1562099D01*
X-12392462Y1569080D01*
X-12286822Y2251473D01*
X-12285552Y2258394D01*
X-12141981Y2933843D01*
X-12140326Y2940682D01*
X-11959279Y3607049D01*
X-11957245Y3613785D01*
X-11739284Y4268996D01*
X-11736878Y4275608D01*
X-11482673Y4917656D01*
X-11479901Y4924123D01*
X-11190255Y5550975D01*
X-11187126Y5557277D01*
X-11182188Y5566563D01*
X-10862948Y6166968D01*
X-10859477Y6173079D01*
X-10743246Y6364998D01*
X-10501760Y6763740D01*
X-10497949Y6769653D01*
X-10107820Y7339421D01*
X-10103696Y7345098D01*
X-9682354Y7892221D01*
X-9677922Y7897655D01*
X-9226720Y8420378D01*
X-9221976Y8425574D01*
X-8917986Y8740365D01*
X-8742275Y8922318D01*
X-8737282Y8927209D01*
X-8230594Y9396406D01*
X-8225303Y9401038D01*
X-7988927Y9596585D01*
X-7693242Y9841197D01*
X-7687720Y9845511D01*
X-7131885Y10255309D01*
X-7126114Y10259319D01*
X-7040411Y10315401D01*
X-6746187Y10507936D01*
X-2462293Y10507936D01*
X-2433175Y10315401D01*
X-2430972Y10309415D01*
X-2430971Y10309409D01*
X-2368140Y10138640D01*
X-2368138Y10138635D01*
X-2365937Y10132654D01*
X-2263326Y9967160D01*
X-2129534Y9825678D01*
X-1970025Y9713989D01*
X-1964162Y9711452D01*
X-1797175Y9639190D01*
X-1797171Y9639189D01*
X-1791316Y9636655D01*
X-1785069Y9635350D01*
X-1785066Y9635349D01*
X-1605443Y9597824D01*
X-1605438Y9597823D01*
X-1600707Y9596835D01*
X-1594315Y9596500D01*
X-1451337Y9596500D01*
X-1382049Y9603538D01*
X-1312622Y9610590D01*
X-1312621Y9610590D01*
X-1306273Y9611235D01*
X-1225157Y9636655D01*
X-1126549Y9667556D01*
X-1126544Y9667558D01*
X-1120459Y9669465D01*
X-1006163Y9732821D01*
X-955729Y9760777D01*
X-955726Y9760779D01*
X-950150Y9763870D01*
X-945309Y9768019D01*
X-945305Y9768022D01*
X-807145Y9886440D01*
X-802302Y9890591D01*
X-682954Y10044453D01*
X-642221Y10127232D01*
X-599800Y10213444D01*
X-596982Y10219171D01*
X-578268Y10291014D01*
X-549508Y10401425D01*
X-549508Y10401428D01*
X-547898Y10407607D01*
X-542640Y10507936D01*
X537707Y10507936D01*
X566825Y10315401D01*
X569028Y10309415D01*
X569029Y10309409D01*
X631860Y10138640D01*
X631862Y10138635D01*
X634063Y10132654D01*
X736674Y9967160D01*
X870466Y9825678D01*
X1029975Y9713989D01*
X1035838Y9711452D01*
X1202825Y9639190D01*
X1202829Y9639189D01*
X1208684Y9636655D01*
X1214931Y9635350D01*
X1214934Y9635349D01*
X1394557Y9597824D01*
X1394562Y9597823D01*
X1399293Y9596835D01*
X1405685Y9596500D01*
X1548663Y9596500D01*
X1617951Y9603538D01*
X1687378Y9610590D01*
X1687379Y9610590D01*
X1693727Y9611235D01*
X1774843Y9636655D01*
X1873451Y9667556D01*
X1873456Y9667558D01*
X1879541Y9669465D01*
X1993837Y9732821D01*
X2044271Y9760777D01*
X2044274Y9760779D01*
X2049850Y9763870D01*
X2054691Y9768019D01*
X2054695Y9768022D01*
X2192855Y9886440D01*
X2197698Y9890591D01*
X2317046Y10044453D01*
X2357779Y10127232D01*
X2400200Y10213444D01*
X2403018Y10219171D01*
X2421732Y10291014D01*
X2450492Y10401425D01*
X2450492Y10401428D01*
X2452102Y10407607D01*
X2462293Y10602064D01*
X2433175Y10794599D01*
X2430972Y10800585D01*
X2430971Y10800591D01*
X2368140Y10971360D01*
X2368138Y10971365D01*
X2365937Y10977346D01*
X2263326Y11142840D01*
X2185009Y11225659D01*
X2133919Y11279685D01*
X2129534Y11284322D01*
X2101350Y11304057D01*
X1975259Y11392346D01*
X1970025Y11396011D01*
X1922013Y11416788D01*
X1797175Y11470810D01*
X1797171Y11470811D01*
X1791316Y11473345D01*
X1785069Y11474650D01*
X1785066Y11474651D01*
X1605443Y11512176D01*
X1605438Y11512177D01*
X1600707Y11513165D01*
X1594315Y11513500D01*
X1451337Y11513500D01*
X1382049Y11506462D01*
X1312622Y11499410D01*
X1312621Y11499410D01*
X1306273Y11498765D01*
X1249939Y11481111D01*
X1126549Y11442444D01*
X1126544Y11442442D01*
X1120459Y11440535D01*
X1044713Y11398548D01*
X955729Y11349223D01*
X955726Y11349221D01*
X950150Y11346130D01*
X945309Y11341981D01*
X945305Y11341978D01*
X899417Y11302647D01*
X802302Y11219409D01*
X798391Y11214367D01*
X798390Y11214366D01*
X746503Y11147474D01*
X682954Y11065547D01*
X680138Y11059824D01*
X680136Y11059821D01*
X636608Y10971360D01*
X596982Y10890829D01*
X595373Y10884651D01*
X595372Y10884649D01*
X573477Y10800591D01*
X547898Y10702393D01*
X547564Y10696014D01*
X539845Y10548726D01*
X537707Y10507936D01*
X-542640Y10507936D01*
X-537707Y10602064D01*
X-566825Y10794599D01*
X-569028Y10800585D01*
X-569029Y10800591D01*
X-631860Y10971360D01*
X-631862Y10971365D01*
X-634063Y10977346D01*
X-736674Y11142840D01*
X-814991Y11225659D01*
X-866081Y11279685D01*
X-870466Y11284322D01*
X-898650Y11304057D01*
X-1024741Y11392346D01*
X-1029975Y11396011D01*
X-1077987Y11416788D01*
X-1202825Y11470810D01*
X-1202829Y11470811D01*
X-1208684Y11473345D01*
X-1214931Y11474650D01*
X-1214934Y11474651D01*
X-1394557Y11512176D01*
X-1394562Y11512177D01*
X-1399293Y11513165D01*
X-1405685Y11513500D01*
X-1548663Y11513500D01*
X-1617951Y11506462D01*
X-1687378Y11499410D01*
X-1687379Y11499410D01*
X-1693727Y11498765D01*
X-1750061Y11481111D01*
X-1873451Y11442444D01*
X-1873456Y11442442D01*
X-1879541Y11440535D01*
X-1955287Y11398548D01*
X-2044271Y11349223D01*
X-2044274Y11349221D01*
X-2049850Y11346130D01*
X-2054691Y11341981D01*
X-2054695Y11341978D01*
X-2100583Y11302647D01*
X-2197698Y11219409D01*
X-2201609Y11214367D01*
X-2201610Y11214366D01*
X-2253497Y11147474D01*
X-2317046Y11065547D01*
X-2319862Y11059824D01*
X-2319864Y11059821D01*
X-2363392Y10971360D01*
X-2403018Y10890829D01*
X-2404627Y10884651D01*
X-2404628Y10884649D01*
X-2426523Y10800591D01*
X-2452102Y10702393D01*
X-2452436Y10696014D01*
X-2460155Y10548726D01*
X-2462293Y10507936D01*
X-6746187Y10507936D01*
X-6736436Y10514317D01*
X-6548316Y10637419D01*
X-6542323Y10641106D01*
X-5944316Y10986365D01*
X-5938127Y10989712D01*
X-5364079Y11279685D01*
X-5321758Y11301063D01*
X-5315395Y11304057D01*
X-5219093Y11346130D01*
X-4933712Y11470810D01*
X-4682625Y11580507D01*
X-4676101Y11583143D01*
X-4028871Y11823846D01*
X-4022216Y11826111D01*
X-3511616Y11984168D01*
X-3362571Y12030305D01*
X-3355794Y12032197D01*
X-2685782Y12199250D01*
X-2678910Y12200761D01*
X-2428714Y12248489D01*
X-2000597Y12330157D01*
X-1993684Y12331276D01*
X-1455274Y12403115D01*
X-1309216Y12422603D01*
X-1302219Y12423339D01*
X-613703Y12476318D01*
X-606675Y12476661D01*
X-569924Y12477431D01*
X83685Y12491122D01*
X90721Y12491073D01*
G37*
%TD.AperFunction*%
%TD*%
M02*
